<svg id="svg" version="1.1" xmlns="http://www.w3.org/2000/svg" xmlns:xlink="http://www.w3.org/1999/xlink" width="400" height="131.42857142857142" viewBox="0, 0, 400,131.42857142857142"><g id="svgg"><path id="path0" d="M359.583 12.333 C 359.527 12.425,358.922 12.500,358.240 12.500 C 357.524 12.500,357.000 12.570,357.000 12.667 C 357.000 12.761,356.528 12.833,355.917 12.833 C 355.306 12.833,354.833 12.906,354.833 13.000 C 354.833 13.092,354.458 13.167,354.000 13.167 C 353.542 13.167,353.167 13.242,353.167 13.333 C 353.167 13.425,352.829 13.500,352.417 13.500 C 352.004 13.500,351.667 13.575,351.667 13.667 C 351.667 13.758,351.292 13.833,350.833 13.833 C 350.375 13.833,350.000 13.908,350.000 14.000 C 350.000 14.092,349.696 14.167,349.323 14.167 C 348.915 14.167,348.688 14.233,348.750 14.333 C 348.812 14.434,348.585 14.500,348.177 14.500 C 347.804 14.500,347.500 14.566,347.500 14.647 C 347.500 14.728,346.938 14.847,346.250 14.911 C 345.563 14.976,345.000 15.097,345.000 15.181 C 345.000 15.265,344.742 15.333,344.427 15.333 C 344.111 15.333,343.807 15.408,343.750 15.500 C 343.693 15.592,343.426 15.667,343.157 15.667 C 342.887 15.667,342.667 15.742,342.667 15.833 C 342.667 15.925,342.484 16.000,342.260 16.000 C 342.036 16.000,341.807 16.075,341.750 16.167 C 341.693 16.258,341.464 16.333,341.240 16.333 C 341.016 16.333,340.833 16.408,340.833 16.500 C 340.833 16.592,340.533 16.667,340.167 16.667 C 339.800 16.667,339.500 16.742,339.500 16.833 C 339.500 16.925,339.317 17.000,339.093 17.000 C 338.869 17.000,338.640 17.075,338.583 17.167 C 338.527 17.258,338.297 17.333,338.073 17.333 C 337.850 17.333,337.667 17.408,337.667 17.500 C 337.667 17.592,337.442 17.667,337.167 17.667 C 336.892 17.667,336.667 17.742,336.667 17.833 C 336.667 17.925,336.525 18.000,336.352 18.000 C 335.993 18.000,334.392 18.456,333.961 18.682 C 333.801 18.765,333.558 18.833,333.419 18.833 C 333.280 18.833,333.167 18.908,333.167 19.000 C 333.167 19.092,332.942 19.167,332.667 19.167 C 332.392 19.167,332.167 19.242,332.167 19.333 C 332.167 19.425,331.979 19.500,331.750 19.500 C 331.521 19.500,331.333 19.575,331.333 19.667 C 331.333 19.758,331.183 19.833,331.000 19.833 C 330.817 19.833,330.667 19.908,330.667 20.000 C 330.667 20.092,330.442 20.167,330.167 20.167 C 329.892 20.167,329.667 20.242,329.667 20.333 C 329.667 20.425,329.532 20.500,329.367 20.500 C 328.994 20.500,328.170 20.873,328.168 21.042 C 328.167 21.110,327.989 21.167,327.771 21.167 C 327.135 21.167,325.000 21.969,325.000 22.207 C 325.000 22.277,324.775 22.333,324.500 22.333 C 324.225 22.333,324.000 22.408,324.000 22.500 C 324.000 22.592,323.850 22.667,323.667 22.667 C 323.483 22.667,323.333 22.742,323.333 22.833 C 323.333 22.925,323.183 23.000,323.000 23.000 C 322.817 23.000,322.667 23.075,322.667 23.167 C 322.667 23.258,322.479 23.333,322.250 23.333 C 322.021 23.333,321.833 23.408,321.833 23.500 C 321.833 23.592,321.683 23.667,321.500 23.667 C 321.317 23.667,321.167 23.742,321.167 23.833 C 321.167 23.925,320.942 24.000,320.667 24.000 C 320.392 24.000,320.167 24.075,320.167 24.167 C 320.167 24.258,320.017 24.333,319.833 24.333 C 319.650 24.333,319.500 24.400,319.500 24.481 C 319.500 24.563,319.237 24.679,318.917 24.739 C 318.596 24.799,318.333 24.920,318.333 25.008 C 318.333 25.095,318.183 25.167,318.000 25.167 C 317.817 25.167,317.667 25.242,317.667 25.333 C 317.667 25.425,317.484 25.500,317.260 25.500 C 317.036 25.500,316.807 25.575,316.750 25.667 C 316.693 25.758,316.501 25.833,316.323 25.833 C 316.146 25.833,316.000 25.894,316.000 25.969 C 316.000 26.043,315.737 26.207,315.417 26.333 C 315.096 26.459,314.833 26.623,314.833 26.698 C 314.833 26.772,314.683 26.833,314.500 26.833 C 314.317 26.833,314.167 26.908,314.167 27.000 C 314.167 27.092,314.017 27.167,313.833 27.167 C 313.650 27.167,313.500 27.242,313.500 27.333 C 313.500 27.425,313.350 27.500,313.167 27.500 C 312.983 27.500,312.833 27.575,312.833 27.667 C 312.833 27.758,312.720 27.833,312.582 27.833 C 312.257 27.833,310.667 28.691,310.667 28.866 C 310.667 28.940,310.517 29.000,310.333 29.000 C 310.150 29.000,310.000 29.075,310.000 29.167 C 310.000 29.258,309.850 29.333,309.667 29.333 C 309.483 29.333,309.333 29.408,309.333 29.500 C 309.333 29.592,309.232 29.667,309.109 29.667 C 308.986 29.667,308.749 29.817,308.583 30.000 C 308.417 30.183,308.181 30.333,308.058 30.333 C 307.934 30.333,307.833 30.408,307.833 30.500 C 307.833 30.592,307.683 30.667,307.500 30.667 C 307.317 30.667,307.167 30.742,307.167 30.833 C 307.167 30.925,307.021 31.000,306.843 31.000 C 306.665 31.000,306.475 31.073,306.419 31.162 C 306.364 31.251,306.041 31.454,305.701 31.612 C 305.361 31.770,304.962 32.035,304.814 32.200 C 304.666 32.365,304.438 32.500,304.309 32.500 C 304.179 32.500,303.965 32.650,303.833 32.833 C 303.701 33.017,303.476 33.167,303.333 33.167 C 303.190 33.167,302.965 33.317,302.833 33.500 C 302.701 33.683,302.487 33.833,302.358 33.833 C 302.228 33.833,302.001 33.973,301.853 34.143 C 301.705 34.313,301.415 34.506,301.208 34.571 C 301.002 34.636,300.833 34.759,300.833 34.845 C 300.833 34.930,300.700 35.000,300.537 35.000 C 300.374 35.000,300.132 35.150,300.000 35.333 C 299.868 35.517,299.670 35.667,299.561 35.667 C 299.451 35.667,299.149 35.892,298.890 36.167 C 298.630 36.442,298.354 36.667,298.276 36.667 C 298.198 36.667,297.924 36.892,297.667 37.167 C 297.410 37.442,297.098 37.667,296.973 37.667 C 296.849 37.667,296.544 37.854,296.297 38.083 C 296.050 38.312,295.784 38.500,295.706 38.500 C 295.627 38.500,295.305 38.798,294.990 39.163 C 294.675 39.527,294.324 39.827,294.211 39.830 C 294.098 39.832,293.654 40.171,293.223 40.583 C 292.793 40.996,292.376 41.333,292.296 41.333 C 292.217 41.333,291.559 41.933,290.833 42.667 C 290.108 43.400,289.443 44.000,289.356 44.000 C 289.126 44.000,284.333 48.761,284.333 48.989 C 284.333 49.095,283.771 49.735,283.083 50.411 C 282.396 51.088,281.833 51.728,281.833 51.834 C 281.833 51.940,281.533 52.314,281.167 52.667 C 280.800 53.019,280.499 53.407,280.498 53.529 C 280.498 53.650,280.273 53.927,279.998 54.144 C 279.724 54.360,279.500 54.642,279.500 54.769 C 279.500 54.896,279.420 55.000,279.322 55.000 C 279.220 55.000,279.189 55.142,279.251 55.336 C 279.350 55.649,278.948 56.501,278.442 57.051 C 277.909 57.629,275.648 61.219,274.746 62.917 C 273.437 65.382,272.885 66.480,272.525 67.333 C 271.828 68.988,271.590 69.587,271.333 70.333 C 271.223 70.654,271.074 71.067,271.002 71.250 C 270.930 71.433,270.779 71.921,270.666 72.333 C 270.554 72.746,270.401 73.271,270.327 73.500 C 270.193 73.917,269.884 75.301,269.470 77.333 C 268.261 83.277,270.045 92.171,273.314 96.502 C 274.399 97.939,277.150 100.498,277.611 100.499 C 277.718 100.500,277.831 100.556,277.861 100.625 C 278.218 101.428,283.383 103.621,286.167 104.151 C 289.416 104.770,290.468 104.769,294.333 104.140 C 296.722 103.751,303.290 101.348,303.833 100.664 C 303.879 100.606,304.029 100.517,304.167 100.466 C 305.769 99.873,310.540 94.982,312.833 91.583 C 313.142 91.125,313.437 90.712,313.489 90.667 C 313.619 90.551,315.500 87.686,315.500 87.602 C 315.500 87.565,315.939 86.833,316.475 85.976 C 317.012 85.118,317.639 84.079,317.869 83.667 C 318.098 83.254,318.440 82.646,318.627 82.315 C 318.815 81.983,319.069 81.533,319.193 81.315 C 319.316 81.096,319.454 80.879,319.500 80.833 C 319.546 80.787,319.758 80.412,319.971 80.000 C 321.328 77.375,321.696 76.820,322.015 76.921 C 322.258 76.999,322.333 76.941,322.333 76.678 C 322.333 76.488,322.408 76.333,322.500 76.333 C 322.592 76.333,322.667 76.200,322.667 76.037 C 322.667 75.874,322.817 75.632,323.000 75.500 C 323.183 75.368,323.333 75.126,323.333 74.963 C 323.333 74.800,323.408 74.667,323.500 74.667 C 323.592 74.667,323.667 74.517,323.667 74.333 C 323.667 74.150,323.742 74.000,323.833 74.000 C 323.925 74.000,324.000 73.887,324.000 73.750 C 324.000 73.612,324.069 73.500,324.153 73.500 C 324.236 73.500,324.518 73.050,324.777 72.500 C 325.037 71.950,325.306 71.500,325.375 71.500 C 325.444 71.500,325.500 71.350,325.500 71.167 C 325.500 70.983,325.575 70.833,325.667 70.833 C 325.758 70.833,325.833 70.721,325.833 70.583 C 325.833 70.446,325.908 70.333,326.000 70.333 C 326.092 70.333,326.167 70.200,326.167 70.037 C 326.167 69.874,326.317 69.632,326.500 69.500 C 326.683 69.368,326.833 69.126,326.833 68.963 C 326.833 68.800,326.908 68.667,327.000 68.667 C 327.092 68.667,327.167 68.551,327.167 68.410 C 327.167 68.268,327.318 67.990,327.503 67.791 C 327.689 67.592,327.966 67.146,328.119 66.798 C 328.272 66.451,328.458 66.167,328.532 66.167 C 328.606 66.167,328.667 66.017,328.667 65.833 C 328.667 65.650,328.742 65.500,328.833 65.500 C 328.925 65.500,329.000 65.367,329.000 65.203 C 329.000 65.040,329.150 64.799,329.333 64.667 C 329.517 64.535,329.667 64.330,329.667 64.213 C 329.667 64.096,329.742 64.000,329.833 64.000 C 329.925 64.000,330.000 63.867,330.000 63.703 C 330.000 63.540,330.150 63.299,330.333 63.167 C 330.517 63.035,330.667 62.793,330.667 62.630 C 330.667 62.467,330.742 62.333,330.833 62.333 C 330.925 62.333,331.000 62.200,331.000 62.037 C 331.000 61.874,331.150 61.632,331.333 61.500 C 331.517 61.368,331.667 61.124,331.667 60.958 C 331.667 60.792,331.779 60.613,331.917 60.560 C 332.054 60.508,332.167 60.339,332.167 60.186 C 332.167 60.032,332.317 59.799,332.500 59.667 C 332.683 59.535,332.833 59.310,332.833 59.167 C 332.833 59.024,332.983 58.799,333.167 58.667 C 333.350 58.535,333.500 58.310,333.500 58.167 C 333.500 58.024,333.650 57.799,333.833 57.667 C 334.017 57.535,334.167 57.365,334.167 57.289 C 334.167 57.214,334.354 56.950,334.583 56.703 C 334.813 56.456,335.000 56.138,335.000 55.997 C 335.000 55.856,335.150 55.632,335.333 55.500 C 335.517 55.368,335.667 55.156,335.667 55.030 C 335.667 54.904,335.892 54.590,336.167 54.333 C 336.442 54.076,336.667 53.784,336.667 53.683 C 336.667 53.582,336.729 53.500,336.805 53.500 C 336.881 53.500,337.050 53.294,337.179 53.042 C 337.308 52.790,337.535 52.471,337.683 52.333 C 337.830 52.196,338.085 51.821,338.250 51.500 C 338.415 51.179,338.688 50.819,338.858 50.699 C 339.028 50.579,339.167 50.403,339.167 50.307 C 339.167 50.212,339.392 49.924,339.667 49.667 C 339.942 49.410,340.167 49.110,340.167 49.000 C 340.167 48.890,340.392 48.590,340.667 48.333 C 340.942 48.076,341.167 47.797,341.167 47.713 C 341.167 47.629,341.504 47.207,341.917 46.777 C 342.329 46.346,342.667 45.915,342.667 45.817 C 342.667 45.720,342.967 45.352,343.333 45.000 C 343.700 44.648,344.000 44.319,344.000 44.269 C 344.000 44.179,344.722 43.340,345.458 42.573 C 345.665 42.358,345.836 42.085,345.838 41.966 C 345.841 41.847,346.072 41.563,346.352 41.333 C 347.262 40.588,348.331 39.423,348.340 39.167 C 348.345 39.029,348.649 38.654,349.016 38.333 C 349.741 37.699,351.016 36.452,352.109 35.308 C 352.490 34.909,353.277 34.120,353.859 33.554 C 354.441 32.988,355.179 32.223,355.500 31.854 C 355.821 31.484,356.203 31.179,356.349 31.174 C 356.635 31.166,358.500 29.416,358.500 29.156 C 358.500 29.070,358.615 29.000,358.756 29.000 C 358.896 29.000,359.264 28.756,359.573 28.458 C 359.882 28.160,360.442 27.733,360.817 27.509 C 361.192 27.284,361.541 26.965,361.594 26.800 C 361.646 26.635,361.818 26.500,361.974 26.500 C 362.131 26.500,362.368 26.350,362.500 26.167 C 362.632 25.983,362.844 25.833,362.970 25.833 C 363.096 25.833,363.410 25.608,363.667 25.333 C 363.924 25.058,364.221 24.833,364.328 24.833 C 364.534 24.833,365.712 24.003,365.806 23.792 C 365.836 23.723,365.988 23.667,366.144 23.667 C 366.299 23.667,366.535 23.517,366.667 23.333 C 366.799 23.150,367.024 23.000,367.167 23.000 C 367.310 23.000,367.535 22.850,367.667 22.667 C 367.799 22.483,367.986 22.333,368.083 22.333 C 368.180 22.333,368.368 22.183,368.500 22.000 C 368.632 21.817,368.874 21.667,369.037 21.667 C 369.200 21.667,369.333 21.592,369.333 21.500 C 369.333 21.408,369.457 21.333,369.608 21.333 C 369.932 21.333,371.725 20.488,371.806 20.298 C 371.836 20.226,372.005 20.167,372.181 20.167 C 372.356 20.167,372.500 20.092,372.500 20.000 C 372.500 19.908,372.650 19.833,372.833 19.833 C 373.017 19.833,373.167 19.758,373.167 19.667 C 373.167 19.575,373.317 19.500,373.500 19.500 C 373.683 19.500,373.833 19.425,373.833 19.333 C 373.833 19.242,373.983 19.167,374.167 19.167 C 374.350 19.167,374.500 19.092,374.500 19.000 C 374.500 18.908,374.613 18.833,374.750 18.833 C 374.887 18.833,375.000 18.758,375.000 18.667 C 375.000 18.575,375.225 18.500,375.500 18.500 C 375.775 18.500,376.000 18.430,376.000 18.345 C 376.000 18.259,376.150 18.142,376.333 18.083 C 376.567 18.009,376.667 17.831,376.667 17.489 C 376.667 17.220,376.742 17.000,376.833 17.000 C 376.926 17.000,377.000 16.554,377.000 15.994 C 377.000 14.943,376.275 13.833,375.589 13.833 C 375.448 13.833,375.333 13.777,375.332 13.708 C 375.330 13.539,374.506 13.167,374.133 13.167 C 373.968 13.167,373.833 13.092,373.833 13.000 C 373.833 12.908,373.458 12.833,373.000 12.833 C 372.542 12.833,372.167 12.758,372.167 12.667 C 372.167 12.575,371.754 12.500,371.250 12.500 C 370.746 12.500,370.333 12.425,370.333 12.333 C 370.333 12.226,368.448 12.167,365.010 12.167 C 361.641 12.167,359.649 12.228,359.583 12.333 M351.477 27.023 C 350.619 27.678,349.879 28.260,349.833 28.317 C 349.787 28.375,349.037 29.031,348.167 29.775 C 346.555 31.153,343.025 34.702,340.917 37.065 C 340.275 37.785,339.563 38.582,339.333 38.838 C 338.782 39.452,337.923 40.473,336.671 42.000 C 335.299 43.673,335.304 43.666,334.835 44.333 C 334.610 44.654,334.285 45.067,334.113 45.250 C 333.942 45.433,333.455 46.071,333.031 46.667 C 332.608 47.262,332.218 47.788,332.164 47.833 C 332.111 47.879,331.887 48.179,331.667 48.500 C 331.446 48.821,331.220 49.121,331.164 49.167 C 331.108 49.212,330.544 50.000,329.912 50.917 C 329.279 51.833,328.702 52.608,328.631 52.639 C 328.559 52.669,328.500 52.794,328.500 52.917 C 328.500 53.039,328.440 53.164,328.367 53.194 C 328.168 53.277,325.000 57.943,325.000 58.153 C 325.000 58.252,324.940 58.333,324.866 58.333 C 324.793 58.333,324.362 58.952,323.908 59.708 C 323.455 60.465,322.516 61.946,321.823 63.000 C 321.130 64.054,320.511 65.029,320.449 65.167 C 320.386 65.304,320.035 65.893,319.668 66.475 C 319.300 67.057,319.000 67.601,319.000 67.683 C 319.000 67.766,318.925 67.833,318.833 67.833 C 318.742 67.833,318.667 67.914,318.667 68.012 C 318.667 68.110,318.442 68.517,318.167 68.917 C 317.892 69.316,317.667 69.683,317.667 69.732 C 317.667 69.781,317.262 70.495,316.767 71.319 C 316.273 72.144,315.767 73.047,315.643 73.326 C 315.520 73.605,315.362 73.833,315.293 73.833 C 315.223 73.833,315.167 73.905,315.167 73.993 C 315.167 74.080,314.946 74.527,314.675 74.985 C 314.405 75.444,313.865 76.439,313.474 77.197 C 311.920 80.216,310.951 80.544,310.361 78.250 C 310.267 77.883,310.063 77.133,309.908 76.583 C 308.029 69.931,302.018 64.340,295.333 63.028 C 292.576 62.487,292.276 62.462,289.802 62.559 C 288.398 62.614,286.800 62.738,286.250 62.835 C 283.995 63.231,283.045 63.237,282.923 62.855 C 282.681 62.090,284.397 59.467,287.583 55.732 C 289.433 53.564,294.434 48.742,297.073 46.583 C 297.521 46.217,298.045 45.767,298.237 45.583 C 298.429 45.400,299.036 44.913,299.585 44.500 C 300.134 44.088,300.621 43.708,300.667 43.655 C 300.712 43.602,301.350 43.114,302.083 42.571 C 302.816 42.028,303.562 41.452,303.740 41.292 C 303.917 41.131,304.155 41.000,304.268 41.000 C 304.380 41.000,304.497 40.938,304.528 40.863 C 304.584 40.723,307.085 39.005,308.053 38.441 C 308.345 38.271,308.608 38.064,308.639 37.982 C 308.669 37.900,308.757 37.833,308.834 37.833 C 308.911 37.833,309.636 37.451,310.445 36.983 C 313.041 35.482,313.385 35.294,315.250 34.341 C 316.258 33.827,317.608 33.192,318.250 32.931 C 318.892 32.669,319.735 32.315,320.123 32.144 C 320.512 31.973,320.907 31.833,321.000 31.833 C 321.094 31.833,321.320 31.758,321.502 31.667 C 321.684 31.575,321.982 31.425,322.164 31.333 C 322.346 31.242,322.642 31.167,322.821 31.167 C 323.000 31.167,323.188 31.100,323.238 31.019 C 323.345 30.846,324.333 30.675,324.333 30.830 C 324.333 30.889,324.064 31.382,323.735 31.926 C 323.080 33.011,323.080 33.011,321.311 36.512 C 320.636 37.848,319.983 39.198,319.861 39.512 C 319.525 40.377,319.310 40.886,319.147 41.206 C 319.066 41.365,319.000 41.610,319.000 41.750 C 319.000 41.890,318.933 42.135,318.851 42.294 C 318.769 42.453,318.631 42.984,318.543 43.473 C 318.332 44.658,318.619 44.774,319.554 43.881 C 319.937 43.516,320.550 43.000,320.917 42.734 C 321.283 42.469,321.621 42.213,321.667 42.166 C 321.712 42.118,322.350 41.672,323.083 41.173 C 323.817 40.674,324.772 40.019,325.207 39.717 C 325.641 39.414,326.040 39.167,326.093 39.167 C 326.146 39.167,326.517 38.942,326.917 38.667 C 327.316 38.392,327.724 38.167,327.822 38.167 C 327.920 38.167,328.000 38.110,328.000 38.041 C 328.000 37.971,328.244 37.807,328.542 37.675 C 328.840 37.544,329.721 37.068,330.500 36.617 C 331.279 36.167,332.217 35.630,332.583 35.423 C 332.950 35.216,333.550 34.875,333.917 34.664 C 334.283 34.453,335.858 33.638,337.417 32.851 C 338.975 32.065,340.275 31.364,340.306 31.294 C 340.336 31.224,340.505 31.167,340.681 31.167 C 340.856 31.167,341.000 31.110,341.000 31.041 C 341.000 30.971,341.244 30.814,341.542 30.690 C 342.260 30.393,343.319 29.917,344.792 29.230 C 345.456 28.920,346.544 28.415,347.208 28.107 C 347.873 27.799,348.686 27.421,349.016 27.267 C 350.220 26.704,352.425 25.860,352.727 25.847 C 352.901 25.839,352.350 26.358,351.477 27.023 M292.306 69.773 C 300.618 71.516,306.087 80.539,303.858 88.833 C 303.454 90.337,302.093 93.333,301.813 93.333 C 301.733 93.333,301.667 93.418,301.667 93.522 C 301.667 94.517,297.116 98.326,295.028 99.079 C 294.600 99.233,294.100 99.420,293.917 99.494 C 292.027 100.258,287.846 100.611,286.103 100.153 C 285.725 100.055,285.117 99.896,284.750 99.801 C 278.345 98.144,273.333 91.574,273.333 84.833 C 273.333 82.616,274.686 77.646,275.367 77.361 C 275.440 77.331,275.500 77.228,275.500 77.132 C 275.500 76.777,277.005 74.877,278.190 73.736 C 281.941 70.127,287.095 68.680,292.306 69.773 " stroke="none" fill="#67b3ed" fill-rule="evenodd"></path><path id="path1" d="M309.496 42.847 C 308.352 43.418,306.963 44.160,306.408 44.495 C 305.854 44.831,305.285 45.149,305.145 45.203 C 304.744 45.357,297.408 50.316,295.833 51.497 C 295.054 52.081,293.854 52.975,293.167 53.484 C 292.479 53.992,291.879 54.447,291.833 54.496 C 291.787 54.546,291.000 55.181,290.083 55.908 C 289.167 56.635,288.379 57.272,288.333 57.323 C 288.287 57.375,287.651 57.942,286.920 58.583 C 282.240 62.688,282.050 63.442,285.891 62.665 C 291.887 61.453,300.009 63.314,303.587 66.719 C 306.282 69.285,307.232 70.383,308.013 71.833 C 308.235 72.246,308.455 72.621,308.502 72.667 C 308.602 72.764,309.318 74.261,309.499 74.750 C 309.567 74.933,309.707 75.271,309.810 75.500 C 309.913 75.729,310.193 76.667,310.431 77.583 C 310.670 78.500,310.929 79.317,311.007 79.399 C 311.157 79.558,311.189 79.440,311.493 77.583 C 311.598 76.942,311.750 76.117,311.831 75.750 C 311.912 75.383,312.062 74.596,312.166 74.000 C 312.269 73.404,312.420 72.654,312.502 72.333 C 312.584 72.012,312.696 71.525,312.751 71.250 C 312.849 70.762,312.974 70.189,313.316 68.667 C 313.408 68.254,313.755 66.979,314.087 65.833 C 314.419 64.688,314.753 63.525,314.829 63.250 C 315.107 62.245,316.013 59.796,316.353 59.127 C 316.434 58.968,316.500 58.755,316.500 58.653 C 316.500 57.754,321.372 49.126,322.029 48.861 C 322.105 48.831,322.166 48.681,322.164 48.528 C 322.163 48.360,322.113 48.320,322.039 48.427 C 321.907 48.618,319.762 49.944,318.417 50.667 C 317.958 50.914,317.171 51.362,316.667 51.663 C 314.341 53.053,311.835 53.799,310.745 53.426 C 308.978 52.822,308.988 50.705,310.784 45.042 C 311.285 43.461,311.668 42.087,311.635 41.988 C 311.601 41.886,310.681 42.255,309.496 42.847 M289.708 69.615 C 289.869 69.657,290.131 69.657,290.292 69.615 C 290.452 69.573,290.321 69.539,290.000 69.539 C 289.679 69.539,289.548 69.573,289.708 69.615 M268.881 82.250 C 268.882 82.708,268.915 82.876,268.953 82.623 C 268.991 82.369,268.990 81.994,268.951 81.789 C 268.911 81.584,268.880 81.792,268.881 82.250 M273.557 84.917 C 273.558 85.650,273.587 85.929,273.622 85.537 C 273.657 85.145,273.657 84.545,273.621 84.204 C 273.585 83.863,273.557 84.183,273.557 84.917 M278.083 95.833 C 278.441 96.200,278.772 96.500,278.818 96.500 C 278.863 96.500,278.608 96.200,278.250 95.833 C 277.892 95.467,277.562 95.167,277.516 95.167 C 277.470 95.167,277.725 95.467,278.083 95.833 " stroke="none" fill="#bbdbf4" fill-rule="evenodd"></path><path id="path2" d="M357.667 53.333 C 357.667 53.429,357.167 53.500,356.500 53.500 C 355.833 53.500,355.333 53.571,355.333 53.667 C 355.333 53.758,354.921 53.833,354.417 53.833 C 353.912 53.833,353.500 53.901,353.500 53.984 C 353.500 54.066,353.050 54.186,352.500 54.250 C 351.950 54.314,351.458 54.434,351.407 54.516 C 351.355 54.599,351.093 54.667,350.823 54.667 C 350.554 54.667,350.333 54.742,350.333 54.833 C 350.333 54.925,350.182 55.000,349.998 55.000 C 349.813 55.000,349.513 55.075,349.331 55.167 C 349.149 55.258,348.851 55.408,348.669 55.500 C 348.487 55.592,348.224 55.667,348.086 55.667 C 347.947 55.667,347.833 55.742,347.833 55.833 C 347.833 55.925,347.700 56.000,347.537 56.000 C 347.374 56.000,347.132 56.150,347.000 56.333 C 346.868 56.517,346.626 56.667,346.463 56.667 C 346.300 56.667,346.167 56.742,346.167 56.833 C 346.167 56.925,346.017 57.000,345.833 57.000 C 345.650 57.000,345.500 57.056,345.499 57.125 C 345.499 57.194,345.162 57.389,344.749 57.558 C 344.337 57.728,344.000 57.934,344.000 58.017 C 344.000 58.099,343.867 58.167,343.703 58.167 C 343.540 58.167,343.299 58.317,343.167 58.500 C 343.035 58.683,342.846 58.833,342.748 58.833 C 342.650 58.833,342.302 59.077,341.975 59.375 C 341.648 59.673,341.101 60.142,340.759 60.417 C 339.854 61.144,337.000 64.064,337.000 64.263 C 337.000 64.320,336.775 64.576,336.500 64.833 C 336.225 65.090,336.000 65.404,336.000 65.530 C 336.000 65.656,335.850 65.868,335.667 66.000 C 335.483 66.132,335.333 66.374,335.333 66.537 C 335.333 66.700,335.260 66.833,335.170 66.833 C 335.080 66.833,334.959 67.021,334.902 67.250 C 334.844 67.479,334.730 67.667,334.649 67.667 C 334.567 67.667,334.500 67.800,334.500 67.963 C 334.500 68.126,334.350 68.368,334.167 68.500 C 333.983 68.632,333.833 68.874,333.833 69.037 C 333.833 69.200,333.758 69.333,333.667 69.333 C 333.575 69.333,333.500 69.483,333.500 69.667 C 333.500 69.850,333.425 70.000,333.333 70.000 C 333.242 70.000,333.167 70.150,333.167 70.333 C 333.167 70.517,333.092 70.667,333.000 70.667 C 332.908 70.667,332.833 70.854,332.833 71.083 C 332.833 71.313,332.758 71.500,332.667 71.500 C 332.575 71.500,332.500 71.650,332.500 71.833 C 332.500 72.017,332.425 72.167,332.333 72.167 C 332.242 72.167,332.167 72.392,332.167 72.667 C 332.167 72.942,332.099 73.167,332.016 73.167 C 331.933 73.167,331.813 73.542,331.750 74.000 C 331.687 74.458,331.567 74.833,331.484 74.833 C 331.401 74.833,331.333 75.096,331.333 75.417 C 331.333 75.737,331.258 76.000,331.167 76.000 C 331.075 76.000,331.000 76.337,331.000 76.750 C 331.000 77.162,330.925 77.500,330.833 77.500 C 330.742 77.500,330.667 77.875,330.667 78.333 C 330.667 78.792,330.592 79.167,330.500 79.167 C 330.397 79.167,330.333 80.083,330.333 81.583 C 330.333 83.083,330.270 84.000,330.167 84.000 C 330.075 84.000,330.000 84.337,330.000 84.750 C 330.000 85.162,330.075 85.500,330.167 85.500 C 330.269 85.500,330.333 86.330,330.333 87.657 C 330.333 88.915,330.403 89.857,330.500 89.917 C 330.592 89.973,330.667 90.428,330.667 90.927 C 330.667 91.425,330.742 91.833,330.833 91.833 C 330.925 91.833,331.000 92.133,331.000 92.500 C 331.000 92.867,331.075 93.167,331.167 93.167 C 331.258 93.167,331.333 93.429,331.333 93.750 C 331.333 94.071,331.398 94.333,331.477 94.333 C 331.556 94.333,331.666 94.721,331.722 95.196 C 331.779 95.670,331.901 96.135,331.996 96.229 C 332.090 96.323,332.167 96.572,332.167 96.783 C 332.167 96.994,332.242 97.167,332.333 97.167 C 332.425 97.167,332.500 97.392,332.500 97.667 C 332.500 97.942,332.575 98.167,332.667 98.167 C 332.758 98.167,332.833 98.317,332.833 98.500 C 332.833 98.683,332.908 98.833,333.000 98.833 C 333.092 98.833,333.167 98.983,333.167 99.167 C 333.167 99.350,333.228 99.500,333.302 99.500 C 333.377 99.500,333.541 99.763,333.667 100.083 C 333.793 100.404,333.957 100.667,334.031 100.667 C 334.106 100.667,334.167 100.817,334.167 101.000 C 334.167 101.183,334.242 101.333,334.333 101.333 C 334.425 101.333,334.500 101.483,334.500 101.667 C 334.500 101.850,334.561 102.000,334.636 102.000 C 334.710 102.000,334.898 102.244,335.051 102.542 C 335.462 103.335,335.714 103.712,336.042 104.017 C 336.202 104.167,336.333 104.366,336.333 104.461 C 336.333 104.556,336.708 105.016,337.167 105.484 C 337.625 105.952,338.000 106.372,338.000 106.416 C 338.000 106.636,339.919 108.667,340.127 108.667 C 340.211 108.667,340.638 109.004,341.074 109.417 C 341.511 109.829,341.956 110.167,342.064 110.167 C 342.172 110.167,342.368 110.317,342.500 110.500 C 342.632 110.683,342.857 110.833,343.000 110.833 C 343.143 110.833,343.368 110.983,343.500 111.167 C 343.632 111.350,343.822 111.500,343.922 111.500 C 344.022 111.500,344.253 111.631,344.436 111.792 C 345.099 112.374,346.847 113.333,347.244 113.333 C 347.385 113.333,347.500 113.408,347.500 113.500 C 347.500 113.592,347.725 113.667,348.000 113.667 C 348.275 113.667,348.500 113.742,348.500 113.833 C 348.500 113.925,348.688 114.000,348.917 114.000 C 349.146 114.000,349.333 114.075,349.333 114.167 C 349.333 114.258,349.483 114.333,349.667 114.333 C 349.850 114.333,350.000 114.408,350.000 114.500 C 350.000 114.592,350.225 114.667,350.500 114.667 C 350.775 114.667,351.000 114.742,351.000 114.833 C 351.000 114.925,351.225 115.000,351.500 115.000 C 351.775 115.000,352.000 115.075,352.000 115.167 C 352.000 115.258,352.262 115.333,352.583 115.333 C 352.904 115.333,353.167 115.408,353.167 115.500 C 353.167 115.592,353.500 115.667,353.907 115.667 C 354.314 115.667,354.693 115.742,354.750 115.833 C 354.807 115.925,355.182 116.000,355.583 116.000 C 355.985 116.000,356.360 116.075,356.417 116.167 C 356.481 116.271,358.196 116.333,361.010 116.333 C 363.892 116.333,365.500 116.274,365.500 116.167 C 365.500 116.075,365.875 116.000,366.333 116.000 C 366.792 116.000,367.167 115.925,367.167 115.833 C 367.167 115.742,367.429 115.667,367.750 115.667 C 368.071 115.667,368.333 115.592,368.333 115.500 C 368.333 115.408,368.629 115.333,368.990 115.333 C 369.351 115.333,369.693 115.258,369.750 115.167 C 369.807 115.075,370.036 115.000,370.260 115.000 C 370.484 115.000,370.667 114.925,370.667 114.833 C 370.667 114.742,370.850 114.667,371.073 114.667 C 371.297 114.667,371.527 114.592,371.583 114.500 C 371.640 114.408,371.869 114.333,372.093 114.333 C 372.317 114.333,372.500 114.258,372.500 114.167 C 372.500 114.075,372.650 114.000,372.833 114.000 C 373.017 114.000,373.167 113.925,373.167 113.833 C 373.167 113.742,373.295 113.667,373.451 113.667 C 373.828 113.667,375.667 112.813,375.667 112.637 C 375.667 112.562,375.817 112.500,376.000 112.500 C 376.183 112.500,376.333 112.425,376.333 112.333 C 376.333 112.242,376.483 112.167,376.667 112.167 C 376.850 112.167,377.000 112.092,377.000 112.000 C 377.000 111.908,377.098 111.833,377.219 111.833 C 377.339 111.833,377.598 111.683,377.795 111.500 C 377.992 111.317,378.214 111.167,378.290 111.167 C 378.365 111.167,378.535 111.017,378.667 110.833 C 378.799 110.650,379.008 110.500,379.132 110.500 C 379.256 110.500,379.462 110.406,379.590 110.292 C 379.718 110.177,380.200 109.821,380.661 109.500 C 381.122 109.179,381.542 108.785,381.594 108.625 C 381.646 108.465,381.802 108.333,381.940 108.333 C 382.206 108.333,385.000 105.593,385.000 105.332 C 385.000 105.247,385.262 104.915,385.583 104.594 C 385.904 104.274,386.167 103.901,386.167 103.767 C 386.167 103.632,386.305 103.479,386.473 103.425 C 386.642 103.372,386.886 103.123,387.015 102.872 C 387.144 102.622,387.381 102.271,387.542 102.094 C 387.702 101.916,387.833 101.672,387.833 101.552 C 387.833 101.432,387.900 101.333,387.981 101.333 C 388.063 101.333,388.179 101.071,388.239 100.750 C 388.299 100.429,388.420 100.167,388.508 100.167 C 388.595 100.167,388.667 100.054,388.667 99.917 C 388.667 99.779,388.742 99.667,388.833 99.667 C 388.925 99.667,389.000 99.479,389.000 99.250 C 389.000 99.021,389.075 98.833,389.167 98.833 C 389.258 98.833,389.333 98.683,389.333 98.500 C 389.333 98.317,389.408 98.167,389.500 98.167 C 389.592 98.167,389.667 98.017,389.667 97.833 C 389.667 97.650,389.742 97.500,389.833 97.500 C 389.925 97.500,390.000 97.317,390.000 97.093 C 390.000 96.869,390.075 96.640,390.167 96.583 C 390.258 96.527,390.333 96.297,390.333 96.073 C 390.333 95.850,390.408 95.667,390.500 95.667 C 390.592 95.667,390.667 95.442,390.667 95.167 C 390.667 94.892,390.742 94.667,390.833 94.667 C 390.925 94.667,391.000 94.409,391.000 94.093 C 391.000 93.778,391.067 93.478,391.149 93.428 C 391.231 93.377,391.341 93.054,391.393 92.709 C 391.727 90.496,391.817 89.595,391.825 88.375 C 391.830 87.575,391.903 87.000,392.000 87.000 C 392.103 87.000,392.167 86.167,392.167 84.833 L 392.167 82.667 373.333 82.667 L 354.500 82.667 354.500 89.667 L 354.500 96.667 363.423 96.667 C 371.871 96.667,372.336 96.682,372.182 96.958 C 371.894 97.472,371.218 98.167,371.006 98.167 C 370.893 98.167,370.590 98.392,370.333 98.667 C 370.076 98.942,369.763 99.167,369.637 99.167 C 369.510 99.167,369.299 99.317,369.167 99.500 C 369.035 99.683,368.830 99.833,368.713 99.833 C 368.596 99.833,368.500 99.908,368.500 100.000 C 368.500 100.092,368.410 100.167,368.300 100.167 C 367.912 100.167,366.167 100.742,366.167 100.870 C 366.167 100.942,365.904 101.000,365.583 101.000 C 365.262 101.000,365.000 101.075,365.000 101.167 C 365.000 101.262,364.500 101.333,363.833 101.333 C 363.167 101.333,362.667 101.405,362.667 101.500 C 362.667 101.599,362.028 101.667,361.083 101.667 C 360.139 101.667,359.500 101.599,359.500 101.500 C 359.500 101.408,359.167 101.333,358.760 101.333 C 358.353 101.333,357.973 101.258,357.917 101.167 C 357.860 101.075,357.556 101.000,357.240 101.000 C 356.925 101.000,356.667 100.925,356.667 100.833 C 356.667 100.742,356.488 100.667,356.269 100.667 C 356.050 100.667,355.657 100.555,355.394 100.418 C 355.131 100.281,354.764 100.168,354.578 100.168 C 354.392 100.167,354.132 100.017,354.000 99.833 C 353.868 99.650,353.626 99.500,353.463 99.500 C 353.300 99.500,353.167 99.425,353.167 99.333 C 353.167 99.242,353.048 99.167,352.904 99.167 C 352.759 99.167,352.352 98.867,352.000 98.500 C 351.648 98.133,351.319 97.833,351.269 97.833 C 351.123 97.833,350.000 96.765,350.000 96.626 C 350.000 96.557,349.700 96.191,349.333 95.813 C 348.967 95.436,348.667 95.023,348.667 94.897 C 348.667 94.770,348.603 94.667,348.525 94.667 C 348.447 94.667,348.244 94.329,348.074 93.917 C 347.904 93.504,347.705 93.167,347.632 93.167 C 347.560 93.167,347.500 92.984,347.500 92.760 C 347.500 92.536,347.425 92.307,347.333 92.250 C 347.242 92.193,347.167 92.001,347.167 91.823 C 347.167 91.646,347.092 91.500,347.000 91.500 C 346.908 91.500,346.833 91.275,346.833 91.000 C 346.833 90.725,346.758 90.500,346.667 90.500 C 346.575 90.500,346.500 90.237,346.500 89.917 C 346.500 89.596,346.425 89.333,346.333 89.333 C 346.242 89.333,346.167 88.921,346.167 88.417 C 346.167 87.912,346.092 87.500,346.000 87.500 C 345.896 87.500,345.833 86.500,345.833 84.833 C 345.833 83.167,345.896 82.167,346.000 82.167 C 346.092 82.167,346.167 81.754,346.167 81.250 C 346.167 80.746,346.242 80.333,346.333 80.333 C 346.425 80.333,346.500 80.071,346.500 79.750 C 346.500 79.429,346.575 79.167,346.667 79.167 C 346.758 79.167,346.833 78.942,346.833 78.667 C 346.833 78.392,346.908 78.167,347.000 78.167 C 347.092 78.167,347.167 78.017,347.167 77.833 C 347.167 77.650,347.242 77.500,347.333 77.500 C 347.425 77.500,347.500 77.356,347.500 77.181 C 347.500 77.005,347.556 76.836,347.625 76.806 C 347.694 76.775,347.972 76.300,348.244 75.750 C 348.515 75.200,348.871 74.629,349.035 74.480 C 349.199 74.332,349.333 74.162,349.333 74.103 C 349.333 74.043,349.896 73.432,350.583 72.745 C 351.271 72.057,351.833 71.421,351.833 71.331 C 351.833 71.240,351.983 71.167,352.167 71.167 C 352.350 71.167,352.500 71.106,352.500 71.032 C 352.500 70.958,352.800 70.765,353.167 70.603 C 353.533 70.442,353.833 70.240,353.833 70.155 C 353.833 70.070,353.983 70.000,354.167 70.000 C 354.350 70.000,354.500 69.925,354.500 69.833 C 354.500 69.742,354.613 69.667,354.750 69.667 C 354.887 69.667,355.000 69.592,355.000 69.500 C 355.000 69.408,355.225 69.333,355.500 69.333 C 355.775 69.333,356.000 69.258,356.000 69.167 C 356.000 69.075,356.225 69.000,356.500 69.000 C 356.775 69.000,357.000 68.925,357.000 68.833 C 357.000 68.742,357.258 68.667,357.573 68.667 C 357.889 68.667,358.193 68.592,358.250 68.500 C 358.307 68.408,358.986 68.333,359.760 68.333 C 360.587 68.333,361.167 68.265,361.167 68.167 C 361.167 68.075,361.429 68.000,361.750 68.000 C 362.071 68.000,362.333 68.075,362.333 68.167 C 362.333 68.259,362.778 68.333,363.333 68.333 C 363.889 68.333,364.333 68.407,364.333 68.500 C 364.333 68.592,364.671 68.667,365.083 68.667 C 365.496 68.667,365.833 68.742,365.833 68.833 C 365.833 68.925,366.058 69.000,366.333 69.000 C 366.608 69.000,366.833 69.075,366.833 69.167 C 366.833 69.258,367.052 69.333,367.319 69.333 C 367.587 69.333,367.831 69.390,367.861 69.458 C 367.892 69.527,368.292 69.770,368.750 69.999 C 369.208 70.228,369.682 70.509,369.804 70.624 C 369.925 70.739,370.137 70.833,370.275 70.833 C 370.536 70.833,371.167 71.445,372.583 73.072 C 373.042 73.598,373.510 74.129,373.625 74.252 C 373.740 74.375,373.833 74.577,373.833 74.701 C 373.833 74.825,373.983 75.035,374.167 75.167 C 374.350 75.299,374.500 75.540,374.500 75.703 C 374.500 75.867,374.575 76.000,374.667 76.000 C 374.758 76.000,374.834 76.169,374.834 76.375 C 374.835 76.581,374.947 76.965,375.084 77.227 C 375.221 77.490,375.333 77.884,375.333 78.102 C 375.333 78.321,375.403 78.500,375.489 78.500 C 375.575 78.500,375.668 78.706,375.697 78.958 L 375.750 79.417 383.792 79.460 L 391.833 79.503 391.821 78.543 C 391.808 77.537,391.648 76.425,391.334 75.167 C 391.230 74.754,391.105 74.210,391.054 73.958 C 391.004 73.706,390.896 73.500,390.814 73.500 C 390.733 73.500,390.667 73.275,390.667 73.000 C 390.667 72.725,390.592 72.500,390.500 72.500 C 390.408 72.500,390.333 72.275,390.333 72.000 C 390.333 71.725,390.258 71.500,390.167 71.500 C 390.075 71.500,390.000 71.313,390.000 71.083 C 390.000 70.854,389.925 70.667,389.833 70.667 C 389.742 70.667,389.667 70.517,389.667 70.333 C 389.667 70.150,389.592 70.000,389.500 70.000 C 389.408 70.000,389.333 69.850,389.333 69.667 C 389.333 69.483,389.258 69.333,389.167 69.333 C 389.075 69.333,389.000 69.183,389.000 69.000 C 389.000 68.817,388.925 68.667,388.833 68.667 C 388.742 68.667,388.667 68.517,388.667 68.333 C 388.667 68.150,388.610 68.000,388.542 67.999 C 388.473 67.999,388.278 67.662,388.108 67.249 C 387.939 66.837,387.733 66.500,387.650 66.500 C 387.568 66.500,387.500 66.367,387.500 66.203 C 387.500 66.040,387.350 65.799,387.167 65.667 C 386.983 65.535,386.833 65.342,386.833 65.238 C 386.833 65.002,385.888 64.000,385.665 64.000 C 385.574 64.000,385.500 63.888,385.500 63.751 C 385.500 63.455,385.057 62.913,383.879 61.765 C 382.471 60.394,382.193 60.167,381.923 60.167 C 381.782 60.167,381.667 60.103,381.667 60.026 C 381.667 59.798,381.120 59.267,380.625 59.012 C 380.373 58.883,380.167 58.715,380.167 58.639 C 380.167 58.562,380.033 58.500,379.870 58.500 C 379.707 58.500,379.465 58.350,379.333 58.167 C 379.201 57.983,378.960 57.833,378.797 57.833 C 378.633 57.833,378.500 57.766,378.500 57.685 C 378.500 57.603,378.313 57.489,378.083 57.432 C 377.854 57.374,377.667 57.253,377.667 57.163 C 377.667 57.074,377.517 57.000,377.333 57.000 C 377.150 57.000,377.000 56.925,377.000 56.833 C 377.000 56.742,376.850 56.667,376.667 56.667 C 376.483 56.667,376.333 56.592,376.333 56.500 C 376.333 56.408,376.183 56.333,376.000 56.333 C 375.817 56.333,375.667 56.258,375.667 56.167 C 375.667 56.075,375.517 56.000,375.333 56.000 C 375.150 56.000,375.000 55.925,375.000 55.833 C 375.000 55.742,374.813 55.667,374.583 55.667 C 374.354 55.667,374.167 55.592,374.167 55.500 C 374.167 55.408,374.017 55.333,373.833 55.333 C 373.650 55.333,373.500 55.258,373.500 55.167 C 373.500 55.075,373.275 55.000,373.000 55.000 C 372.725 55.000,372.500 54.925,372.500 54.833 C 372.500 54.742,372.253 54.667,371.950 54.667 C 371.648 54.667,371.325 54.592,371.234 54.501 C 371.143 54.410,370.603 54.287,370.034 54.227 C 369.465 54.168,369.000 54.055,369.000 53.976 C 369.000 53.898,368.662 53.833,368.250 53.833 C 367.837 53.833,367.500 53.758,367.500 53.667 C 367.500 53.571,367.000 53.500,366.333 53.500 C 365.667 53.500,365.167 53.429,365.167 53.333 C 365.167 53.227,363.806 53.167,361.417 53.167 C 359.028 53.167,357.667 53.227,357.667 53.333 M8.667 84.752 L 8.667 115.337 16.458 115.293 L 24.250 115.250 24.293 100.875 C 24.320 91.485,24.393 86.500,24.501 86.500 C 24.592 86.500,24.667 86.612,24.667 86.750 C 24.667 86.888,24.730 87.000,24.808 87.000 C 24.886 87.000,25.085 87.300,25.250 87.667 C 25.415 88.033,25.614 88.333,25.692 88.333 C 25.770 88.333,25.833 88.432,25.833 88.552 C 25.833 88.672,25.983 88.931,26.167 89.128 C 26.350 89.325,26.500 89.564,26.500 89.660 C 26.500 89.755,26.562 89.833,26.639 89.833 C 26.715 89.833,26.883 90.040,27.012 90.292 C 27.142 90.544,27.379 90.871,27.541 91.020 C 27.702 91.168,27.833 91.412,27.833 91.561 C 27.833 91.711,27.890 91.834,27.958 91.834 C 28.027 91.834,28.381 92.321,28.745 92.917 C 29.109 93.513,29.465 94.000,29.536 94.000 C 29.608 94.000,29.667 94.122,29.667 94.272 C 29.667 94.422,29.798 94.666,29.959 94.814 C 30.121 94.962,30.358 95.290,30.488 95.542 C 30.617 95.794,30.785 96.000,30.861 96.000 C 30.938 96.000,31.000 96.096,31.000 96.213 C 31.000 96.330,31.150 96.535,31.333 96.667 C 31.517 96.799,31.667 97.029,31.667 97.178 C 31.667 98.119,31.919 98.167,36.891 98.167 L 41.494 98.167 41.607 97.708 C 41.669 97.456,41.858 97.129,42.027 96.980 C 42.195 96.832,42.333 96.626,42.333 96.522 C 42.333 96.418,42.396 96.333,42.472 96.333 C 42.548 96.333,42.716 96.127,42.846 95.875 C 42.975 95.623,43.213 95.295,43.374 95.147 C 43.535 94.999,43.667 94.783,43.667 94.667 C 43.667 94.551,43.798 94.333,43.958 94.184 C 44.286 93.879,44.538 93.502,44.949 92.708 C 45.102 92.410,45.290 92.167,45.364 92.167 C 45.439 92.167,45.500 92.033,45.500 91.870 C 45.500 91.707,45.650 91.465,45.833 91.333 C 46.017 91.201,46.167 91.016,46.167 90.922 C 46.168 90.827,46.393 90.510,46.667 90.217 C 46.942 89.924,47.167 89.606,47.167 89.509 C 47.167 89.412,47.237 89.333,47.322 89.333 C 47.408 89.333,47.522 89.192,47.577 89.020 C 47.632 88.847,47.824 88.536,48.005 88.328 C 48.186 88.119,48.333 87.827,48.333 87.678 C 48.333 87.529,48.483 87.299,48.667 87.167 C 48.850 87.035,49.000 86.830,49.000 86.713 C 49.000 86.596,49.075 86.500,49.167 86.500 C 49.276 86.500,49.333 91.417,49.333 100.918 L 49.333 115.337 57.125 115.293 L 64.917 115.250 64.959 84.708 L 65.001 54.167 58.584 54.167 C 53.244 54.167,52.167 54.205,52.167 54.396 C 52.167 54.523,52.054 54.719,51.917 54.833 C 51.779 54.947,51.667 55.165,51.667 55.317 C 51.667 55.469,51.517 55.701,51.333 55.833 C 51.150 55.965,51.000 56.190,51.000 56.333 C 51.000 56.476,50.850 56.701,50.667 56.833 C 50.483 56.965,50.333 57.170,50.333 57.287 C 50.333 57.404,50.271 57.500,50.195 57.500 C 50.119 57.500,49.950 57.706,49.821 57.958 C 49.692 58.210,49.454 58.538,49.293 58.686 C 49.132 58.834,49.000 59.078,49.000 59.228 C 49.000 59.378,48.934 59.500,48.854 59.500 C 48.773 59.500,48.610 59.735,48.491 60.022 C 48.372 60.308,48.101 60.718,47.888 60.931 C 47.674 61.144,47.500 61.397,47.500 61.492 C 47.500 61.588,47.438 61.667,47.361 61.667 C 47.285 61.667,47.117 61.873,46.986 62.125 C 46.856 62.377,46.619 62.729,46.458 62.906 C 46.298 63.084,46.167 63.322,46.167 63.434 C 46.167 63.547,46.110 63.664,46.042 63.694 C 45.814 63.796,45.000 64.974,45.000 65.202 C 45.000 65.325,44.850 65.535,44.667 65.667 C 44.483 65.799,44.333 66.024,44.333 66.167 C 44.333 66.310,44.183 66.535,44.000 66.667 C 43.817 66.799,43.667 66.991,43.667 67.094 C 43.667 67.197,43.517 67.417,43.333 67.583 C 43.150 67.749,43.000 67.969,43.000 68.072 C 43.000 68.175,42.850 68.368,42.667 68.500 C 42.483 68.632,42.333 68.874,42.333 69.037 C 42.333 69.200,42.267 69.333,42.187 69.333 C 42.106 69.333,41.948 69.556,41.835 69.829 C 41.722 70.102,41.507 70.471,41.357 70.648 C 40.600 71.545,40.500 71.683,40.500 71.835 C 40.500 71.926,40.425 72.000,40.333 72.000 C 40.242 72.000,40.167 72.112,40.167 72.250 C 40.167 72.387,40.104 72.500,40.028 72.500 C 39.952 72.500,39.783 72.706,39.653 72.958 C 39.524 73.210,39.379 73.454,39.333 73.500 C 39.000 73.828,38.333 74.852,38.333 75.035 C 38.333 75.159,38.183 75.368,38.000 75.500 C 37.817 75.632,37.667 75.857,37.667 76.000 C 37.667 76.143,37.517 76.368,37.333 76.500 C 37.150 76.632,37.000 76.836,37.000 76.953 C 37.000 77.071,36.925 77.167,36.833 77.167 C 36.742 77.167,36.667 77.071,36.667 76.953 C 36.667 76.836,36.517 76.632,36.333 76.500 C 36.150 76.368,36.000 76.143,36.000 76.000 C 36.000 75.857,35.850 75.632,35.667 75.500 C 35.483 75.368,35.333 75.200,35.333 75.126 C 35.333 74.970,34.513 73.685,34.209 73.363 C 34.094 73.242,34.000 73.085,34.000 73.014 C 34.000 72.943,33.813 72.667,33.584 72.401 C 33.354 72.135,33.167 71.839,33.167 71.745 C 33.167 71.651,33.017 71.465,32.833 71.333 C 32.650 71.201,32.500 71.014,32.500 70.917 C 32.500 70.820,32.350 70.632,32.167 70.500 C 31.983 70.368,31.833 70.132,31.833 69.975 C 31.833 69.819,31.740 69.591,31.625 69.470 C 31.510 69.349,31.310 69.044,31.180 68.792 C 31.050 68.540,30.881 68.333,30.805 68.333 C 30.729 68.333,30.667 68.232,30.667 68.109 C 30.667 67.986,30.517 67.749,30.333 67.583 C 30.150 67.417,30.000 67.197,30.000 67.094 C 30.000 66.991,29.850 66.799,29.667 66.667 C 29.483 66.535,29.333 66.310,29.333 66.167 C 29.333 66.024,29.183 65.799,29.000 65.667 C 28.817 65.535,28.667 65.366,28.667 65.293 C 28.667 65.137,27.846 63.851,27.542 63.530 C 27.427 63.409,27.333 63.243,27.333 63.162 C 27.333 63.081,27.146 62.828,26.917 62.598 C 26.688 62.369,26.500 62.082,26.500 61.961 C 26.500 61.840,26.350 61.632,26.167 61.500 C 25.983 61.368,25.833 61.180,25.833 61.083 C 25.833 60.986,25.683 60.799,25.500 60.667 C 25.317 60.535,25.167 60.298,25.167 60.142 C 25.167 59.985,25.073 59.758,24.958 59.637 C 24.844 59.516,24.644 59.210,24.514 58.958 C 24.383 58.706,24.215 58.500,24.139 58.500 C 24.062 58.500,24.000 58.399,24.000 58.276 C 24.000 58.153,23.850 57.916,23.667 57.750 C 23.483 57.584,23.333 57.364,23.333 57.261 C 23.333 57.158,23.183 56.965,23.000 56.833 C 22.817 56.701,22.667 56.476,22.667 56.333 C 22.667 56.190,22.517 55.965,22.333 55.833 C 22.150 55.701,22.000 55.534,22.000 55.461 C 22.000 55.388,21.831 55.068,21.625 54.750 L 21.250 54.171 14.958 54.169 L 8.667 54.167 8.667 84.752 M70.000 55.250 C 70.000 55.861,70.073 56.333,70.167 56.333 C 70.258 56.333,70.333 56.432,70.333 56.552 C 70.333 56.672,70.483 56.931,70.667 57.128 C 70.850 57.325,71.000 57.564,71.000 57.660 C 71.000 57.755,71.068 57.833,71.151 57.833 C 71.234 57.833,71.510 58.283,71.764 58.833 C 72.017 59.383,72.287 59.833,72.363 59.833 C 72.438 59.833,72.500 59.934,72.500 60.058 C 72.500 60.181,72.650 60.417,72.833 60.583 C 73.017 60.749,73.167 60.986,73.167 61.109 C 73.167 61.232,73.242 61.333,73.333 61.333 C 73.425 61.333,73.500 61.467,73.500 61.630 C 73.500 61.793,73.650 62.035,73.833 62.167 C 74.017 62.299,74.167 62.540,74.167 62.703 C 74.167 62.867,74.229 63.000,74.306 63.000 C 74.382 63.000,74.660 63.413,74.924 63.917 C 75.188 64.421,75.463 64.833,75.535 64.833 C 75.608 64.833,75.667 64.949,75.667 65.090 C 75.667 65.232,75.817 65.508,76.000 65.705 C 76.183 65.902,76.333 66.161,76.333 66.281 C 76.333 66.402,76.408 66.500,76.500 66.500 C 76.592 66.500,76.667 66.596,76.667 66.713 C 76.667 66.830,76.817 67.035,77.000 67.167 C 77.183 67.299,77.333 67.540,77.333 67.703 C 77.333 67.867,77.408 68.000,77.500 68.000 C 77.592 68.000,77.667 68.098,77.667 68.219 C 77.667 68.339,77.817 68.598,78.000 68.795 C 78.183 68.992,78.333 69.259,78.333 69.389 C 78.333 69.519,78.446 69.719,78.583 69.833 C 78.721 69.947,78.833 70.144,78.833 70.270 C 78.833 70.397,78.899 70.500,78.980 70.500 C 79.060 70.500,79.219 70.725,79.333 71.000 C 79.447 71.275,79.606 71.500,79.687 71.500 C 79.767 71.500,79.833 71.633,79.833 71.797 C 79.833 71.960,79.983 72.201,80.167 72.333 C 80.350 72.465,80.500 72.707,80.500 72.870 C 80.500 73.033,80.575 73.167,80.667 73.167 C 80.758 73.167,80.833 73.263,80.833 73.380 C 80.833 73.497,80.983 73.701,81.167 73.833 C 81.350 73.965,81.500 74.192,81.500 74.337 C 81.500 74.482,81.578 74.678,81.673 74.773 C 81.896 74.996,82.480 75.998,82.607 76.375 C 82.661 76.535,82.772 76.667,82.853 76.667 C 82.934 76.667,83.000 76.763,83.000 76.880 C 83.000 76.997,83.150 77.201,83.333 77.333 C 83.517 77.465,83.667 77.707,83.667 77.870 C 83.667 78.033,83.742 78.167,83.833 78.167 C 83.925 78.167,84.000 78.265,84.000 78.385 C 84.000 78.505,84.150 78.765,84.333 78.962 C 84.517 79.158,84.667 79.435,84.667 79.576 C 84.667 79.718,84.737 79.833,84.822 79.833 C 84.908 79.833,85.029 79.996,85.092 80.196 C 85.156 80.395,85.348 80.709,85.520 80.894 C 85.693 81.078,85.833 81.328,85.833 81.448 C 85.833 81.568,85.908 81.667,86.000 81.667 C 86.092 81.667,86.167 81.800,86.167 81.963 C 86.167 82.126,86.317 82.368,86.500 82.500 C 86.683 82.632,86.833 82.835,86.833 82.952 C 86.833 83.147,87.116 83.554,87.625 84.090 C 87.740 84.211,87.833 84.393,87.833 84.495 C 87.833 84.597,87.911 84.771,88.006 84.882 C 88.250 85.167,89.333 87.018,89.333 87.150 C 89.333 87.210,89.483 87.368,89.667 87.500 C 89.850 87.632,90.000 87.874,90.000 88.037 C 90.000 88.200,90.075 88.333,90.167 88.333 C 90.258 88.333,90.333 88.432,90.333 88.552 C 90.333 88.672,90.483 88.931,90.667 89.128 C 90.850 89.325,91.000 89.550,91.000 89.628 C 91.000 89.706,91.169 89.952,91.375 90.173 L 91.750 90.575 91.795 102.954 L 91.840 115.333 99.503 115.333 L 107.167 115.333 107.167 103.083 C 107.167 95.028,107.224 90.833,107.333 90.833 C 107.425 90.833,107.500 90.754,107.500 90.658 C 107.500 90.561,107.688 90.206,107.917 89.869 C 108.146 89.532,108.333 89.140,108.333 88.998 C 108.333 88.856,108.483 88.632,108.667 88.500 C 108.850 88.368,109.000 88.161,109.000 88.040 C 109.000 87.918,109.138 87.671,109.307 87.490 C 109.475 87.309,109.719 86.956,109.848 86.706 C 109.978 86.455,110.215 86.105,110.375 85.927 C 110.535 85.749,110.667 85.505,110.667 85.385 C 110.667 85.265,110.737 85.167,110.822 85.167 C 110.908 85.167,111.025 85.017,111.083 84.834 C 111.141 84.652,111.277 84.407,111.386 84.290 C 111.494 84.174,111.732 83.779,111.914 83.414 C 112.096 83.049,112.378 82.629,112.539 82.480 C 112.701 82.332,112.833 82.088,112.833 81.939 C 112.833 81.789,112.908 81.667,113.000 81.667 C 113.092 81.667,113.167 81.533,113.167 81.370 C 113.167 81.207,113.317 80.965,113.500 80.833 C 113.683 80.701,113.833 80.529,113.833 80.452 C 113.833 80.374,114.048 79.997,114.311 79.613 C 114.573 79.230,114.840 78.748,114.905 78.542 C 114.970 78.335,115.092 78.167,115.178 78.167 C 115.263 78.167,115.333 78.033,115.333 77.870 C 115.333 77.707,115.483 77.465,115.667 77.333 C 115.850 77.201,116.000 76.997,116.000 76.880 C 116.000 76.763,116.075 76.667,116.167 76.667 C 116.258 76.667,116.333 76.554,116.333 76.417 C 116.333 76.279,116.408 76.167,116.500 76.167 C 116.592 76.167,116.667 76.054,116.667 75.917 C 116.667 75.779,116.742 75.667,116.833 75.667 C 116.925 75.667,117.000 75.533,117.000 75.370 C 117.000 75.207,117.150 74.965,117.333 74.833 C 117.517 74.701,117.667 74.494,117.667 74.373 C 117.667 74.252,117.820 73.989,118.006 73.788 C 118.193 73.587,118.393 73.234,118.450 73.003 C 118.507 72.772,118.691 72.462,118.860 72.314 C 119.029 72.166,119.167 71.949,119.167 71.833 C 119.167 71.717,119.298 71.501,119.459 71.353 C 119.621 71.205,119.864 70.858,120.001 70.583 C 120.138 70.308,120.381 69.938,120.542 69.760 C 120.702 69.583,120.833 69.339,120.833 69.219 C 120.833 69.098,120.899 69.000,120.979 69.000 C 121.060 69.000,121.282 68.637,121.473 68.192 C 121.664 67.748,121.936 67.289,122.077 67.172 C 122.218 67.055,122.333 66.872,122.333 66.766 C 122.333 66.660,122.483 66.465,122.667 66.333 C 122.850 66.201,123.000 65.994,123.000 65.873 C 123.000 65.752,123.150 65.492,123.333 65.295 C 123.517 65.098,123.667 64.839,123.667 64.719 C 123.667 64.598,123.742 64.500,123.833 64.500 C 123.925 64.500,124.000 64.397,124.000 64.270 C 124.000 64.144,124.111 63.948,124.247 63.835 C 124.384 63.723,124.665 63.282,124.872 62.857 C 125.080 62.431,125.306 62.058,125.375 62.028 C 125.444 61.997,125.500 61.845,125.500 61.690 C 125.500 61.534,125.650 61.299,125.833 61.167 C 126.017 61.035,126.167 60.865,126.167 60.790 C 126.167 60.714,126.317 60.492,126.500 60.295 C 126.683 60.098,126.833 59.839,126.833 59.719 C 126.833 59.598,126.908 59.500,127.000 59.500 C 127.092 59.500,127.167 59.367,127.167 59.203 C 127.167 59.040,127.317 58.799,127.500 58.667 C 127.683 58.535,127.833 58.293,127.833 58.130 C 127.833 57.967,127.903 57.833,127.989 57.833 C 128.074 57.833,128.197 57.665,128.261 57.458 C 128.326 57.252,128.424 57.046,128.481 57.000 C 128.805 56.736,129.000 56.050,129.000 55.169 L 129.000 54.167 120.428 54.167 L 111.856 54.167 111.741 54.529 C 111.678 54.728,111.485 55.042,111.313 55.227 C 111.141 55.412,111.000 55.661,111.000 55.781 C 111.000 55.902,110.925 56.000,110.833 56.000 C 110.742 56.000,110.667 56.122,110.667 56.272 C 110.667 56.422,110.535 56.666,110.374 56.814 C 110.213 56.962,109.976 57.288,109.847 57.539 C 109.719 57.789,109.475 58.143,109.307 58.324 C 109.138 58.505,109.000 58.768,109.000 58.910 C 109.000 59.051,108.936 59.167,108.859 59.167 C 108.781 59.167,108.582 59.467,108.417 59.833 C 108.251 60.200,108.052 60.500,107.975 60.500 C 107.897 60.500,107.833 60.612,107.833 60.750 C 107.833 60.887,107.758 61.000,107.667 61.000 C 107.575 61.000,107.500 61.133,107.500 61.297 C 107.500 61.460,107.350 61.701,107.167 61.833 C 106.983 61.965,106.833 62.207,106.833 62.370 C 106.833 62.533,106.758 62.667,106.667 62.667 C 106.575 62.667,106.500 62.817,106.500 63.000 C 106.500 63.183,106.425 63.333,106.333 63.333 C 106.242 63.333,106.167 63.456,106.167 63.605 C 106.167 63.755,106.032 63.999,105.867 64.147 C 105.520 64.459,105.000 65.510,105.000 65.900 C 105.000 66.047,104.925 66.167,104.833 66.167 C 104.742 66.167,104.667 66.289,104.667 66.439 C 104.667 66.588,104.530 66.832,104.362 66.980 C 104.195 67.129,103.952 67.494,103.822 67.792 C 103.692 68.090,103.529 68.333,103.459 68.333 C 103.390 68.333,103.333 68.483,103.333 68.667 C 103.333 68.850,103.258 69.000,103.167 69.000 C 103.075 69.000,103.000 69.150,103.000 69.333 C 103.000 69.517,102.925 69.667,102.833 69.667 C 102.742 69.667,102.667 69.810,102.667 69.986 C 102.667 70.162,102.607 70.331,102.533 70.361 C 102.342 70.441,101.500 71.998,101.500 72.271 C 101.500 72.397,101.425 72.500,101.333 72.500 C 101.242 72.500,101.167 72.650,101.167 72.833 C 101.167 73.017,101.092 73.167,101.000 73.167 C 100.908 73.167,100.833 73.317,100.833 73.500 C 100.833 73.683,100.758 73.833,100.667 73.833 C 100.575 73.833,100.500 73.911,100.500 74.007 C 100.500 74.102,100.350 74.342,100.167 74.538 C 99.983 74.735,99.833 74.995,99.833 75.115 C 99.833 75.235,99.683 75.333,99.500 75.333 C 99.278 75.333,99.167 75.222,99.167 75.000 C 99.167 74.817,99.110 74.666,99.042 74.666 C 98.973 74.666,98.700 74.179,98.434 73.583 C 98.169 72.987,97.888 72.500,97.809 72.500 C 97.731 72.500,97.667 72.350,97.667 72.167 C 97.667 71.983,97.606 71.833,97.531 71.833 C 97.457 71.833,97.293 71.571,97.167 71.250 C 97.041 70.929,96.877 70.667,96.802 70.667 C 96.728 70.667,96.667 70.568,96.667 70.448 C 96.667 70.328,96.517 70.069,96.333 69.872 C 96.150 69.675,96.000 69.398,96.000 69.257 C 96.000 69.116,95.925 69.000,95.833 69.000 C 95.742 69.000,95.667 68.850,95.667 68.667 C 95.667 68.483,95.592 68.333,95.500 68.333 C 95.408 68.333,95.333 68.183,95.333 68.000 C 95.333 67.817,95.266 67.667,95.185 67.667 C 95.103 67.667,94.989 67.479,94.932 67.250 C 94.874 67.021,94.753 66.833,94.663 66.833 C 94.574 66.833,94.500 66.683,94.500 66.500 C 94.500 66.317,94.425 66.167,94.333 66.167 C 94.242 66.167,94.167 66.017,94.167 65.833 C 94.167 65.650,94.092 65.500,94.000 65.500 C 93.908 65.500,93.833 65.350,93.833 65.167 C 93.833 64.983,93.758 64.833,93.667 64.833 C 93.575 64.833,93.500 64.737,93.500 64.620 C 93.500 64.503,93.350 64.299,93.167 64.167 C 92.983 64.035,92.833 63.793,92.833 63.630 C 92.833 63.467,92.758 63.333,92.667 63.333 C 92.575 63.333,92.500 63.200,92.500 63.037 C 92.500 62.874,92.350 62.632,92.167 62.500 C 91.983 62.368,91.833 62.135,91.833 61.984 C 91.833 61.832,91.721 61.614,91.583 61.500 C 91.446 61.386,91.333 61.189,91.333 61.063 C 91.333 60.937,91.258 60.833,91.167 60.833 C 91.075 60.833,91.000 60.735,91.000 60.615 C 91.000 60.495,90.850 60.235,90.667 60.038 C 90.483 59.842,90.333 59.599,90.333 59.500 C 90.333 59.401,90.183 59.158,90.000 58.962 C 89.817 58.765,89.667 58.505,89.667 58.385 C 89.667 58.265,89.592 58.167,89.500 58.167 C 89.408 58.167,89.333 58.071,89.333 57.953 C 89.333 57.836,89.183 57.632,89.000 57.500 C 88.817 57.368,88.667 57.133,88.667 56.977 C 88.667 56.822,88.610 56.669,88.542 56.639 C 88.473 56.608,88.198 56.152,87.931 55.625 C 87.663 55.098,87.382 54.667,87.306 54.667 C 87.229 54.667,87.167 54.554,87.167 54.417 C 87.167 54.198,86.102 54.167,78.583 54.167 L 70.000 54.167 70.000 55.250 M156.000 84.750 L 156.000 115.333 172.000 115.333 C 182.556 115.333,188.000 115.277,188.000 115.167 C 188.000 115.075,188.375 115.000,188.833 115.000 C 189.292 115.000,189.667 114.925,189.667 114.833 C 189.667 114.742,190.000 114.667,190.407 114.667 C 190.814 114.667,191.193 114.592,191.250 114.500 C 191.307 114.408,191.536 114.333,191.760 114.333 C 191.984 114.333,192.167 114.258,192.167 114.167 C 192.167 114.075,192.317 114.000,192.500 114.000 C 192.683 114.000,192.833 113.925,192.833 113.833 C 192.833 113.742,192.983 113.667,193.167 113.667 C 193.350 113.667,193.500 113.592,193.500 113.500 C 193.500 113.408,193.620 113.333,193.766 113.333 C 194.137 113.333,195.053 112.881,195.471 112.492 C 195.662 112.313,195.905 112.167,196.009 112.167 C 196.114 112.167,196.410 111.942,196.667 111.667 C 196.924 111.392,197.204 111.167,197.291 111.167 C 197.503 111.167,199.500 109.208,199.500 108.999 C 199.500 108.908,199.575 108.833,199.667 108.833 C 199.758 108.833,199.833 108.751,199.833 108.650 C 199.833 108.549,200.058 108.257,200.333 108.000 C 200.608 107.743,200.833 107.447,200.833 107.343 C 200.833 107.238,200.988 106.987,201.178 106.785 C 201.368 106.582,201.565 106.210,201.616 105.958 C 201.667 105.706,201.774 105.500,201.854 105.500 C 201.934 105.500,202.000 105.350,202.000 105.167 C 202.000 104.983,202.075 104.833,202.167 104.833 C 202.258 104.833,202.333 104.683,202.333 104.500 C 202.333 104.317,202.408 104.167,202.500 104.167 C 202.592 104.167,202.667 104.053,202.667 103.914 C 202.667 103.776,202.753 103.494,202.859 103.289 C 203.273 102.489,203.333 102.327,203.333 102.012 C 203.333 101.833,203.408 101.640,203.500 101.583 C 203.592 101.527,203.667 101.189,203.667 100.833 C 203.667 100.477,203.742 100.140,203.833 100.083 C 203.925 100.027,204.000 99.572,204.000 99.073 C 204.000 98.575,204.075 98.167,204.167 98.167 C 204.270 98.167,204.333 97.278,204.333 95.833 C 204.333 94.389,204.270 93.500,204.167 93.500 C 204.075 93.500,204.000 93.125,204.000 92.667 C 204.000 92.208,203.925 91.833,203.833 91.833 C 203.742 91.833,203.667 91.575,203.667 91.260 C 203.667 90.944,203.592 90.640,203.500 90.583 C 203.408 90.527,203.333 90.297,203.333 90.073 C 203.333 89.850,203.258 89.667,203.167 89.667 C 203.075 89.667,203.000 89.517,203.000 89.333 C 203.000 89.150,202.925 89.000,202.833 89.000 C 202.742 89.000,202.667 88.850,202.667 88.667 C 202.667 88.483,202.592 88.333,202.500 88.333 C 202.408 88.333,202.333 88.200,202.333 88.037 C 202.333 87.874,202.183 87.632,202.000 87.500 C 201.817 87.368,201.667 87.167,201.667 87.054 C 201.667 86.941,201.479 86.661,201.250 86.432 C 201.021 86.203,200.833 85.943,200.833 85.854 C 200.833 85.621,199.374 84.197,198.857 83.926 C 198.615 83.799,198.306 83.539,198.172 83.347 C 198.037 83.156,197.810 83.000,197.667 83.000 C 197.524 83.000,197.299 82.850,197.167 82.667 C 197.035 82.483,196.825 82.333,196.701 82.333 C 196.426 82.333,196.000 81.927,196.000 81.665 C 196.000 81.559,196.480 81.025,197.066 80.479 C 197.652 79.933,198.224 79.264,198.336 78.993 C 198.449 78.722,198.606 78.500,198.687 78.500 C 198.767 78.500,198.833 78.402,198.833 78.281 C 198.833 78.161,198.983 77.902,199.167 77.705 C 199.350 77.508,199.500 77.232,199.500 77.090 C 199.500 76.949,199.575 76.833,199.667 76.833 C 199.758 76.833,199.833 76.646,199.833 76.417 C 199.833 76.188,199.908 76.000,200.000 76.000 C 200.092 76.000,200.167 75.850,200.167 75.667 C 200.167 75.483,200.242 75.333,200.333 75.333 C 200.425 75.333,200.500 75.075,200.500 74.760 C 200.500 74.444,200.575 74.140,200.667 74.083 C 200.758 74.027,200.833 73.647,200.833 73.240 C 200.833 72.833,200.908 72.500,201.000 72.500 C 201.101 72.500,201.167 71.753,201.167 70.593 C 201.167 69.502,201.095 68.642,201.000 68.583 C 200.908 68.527,200.833 68.110,200.833 67.657 C 200.833 67.204,200.758 66.833,200.667 66.833 C 200.575 66.833,200.500 66.533,200.500 66.167 C 200.500 65.800,200.425 65.500,200.333 65.500 C 200.242 65.500,200.167 65.365,200.167 65.200 C 200.167 64.827,199.794 64.003,199.625 64.001 C 199.556 64.001,199.500 63.850,199.500 63.667 C 199.500 63.483,199.425 63.333,199.333 63.333 C 199.242 63.333,199.167 63.183,199.167 63.000 C 199.167 62.817,199.092 62.667,199.000 62.667 C 198.908 62.667,198.833 62.517,198.833 62.333 C 198.833 62.150,198.758 62.000,198.667 62.000 C 198.575 62.000,198.500 61.859,198.500 61.687 C 198.500 61.515,198.387 61.281,198.250 61.167 C 198.112 61.053,198.000 60.887,198.000 60.800 C 198.000 60.712,197.700 60.352,197.333 60.000 C 196.967 59.648,196.667 59.301,196.667 59.231 C 196.667 59.052,195.803 58.167,195.629 58.167 C 195.551 58.167,195.160 57.829,194.759 57.417 C 194.358 57.004,193.927 56.667,193.802 56.667 C 193.676 56.667,193.465 56.517,193.333 56.333 C 193.201 56.150,192.960 56.000,192.797 56.000 C 192.633 56.000,192.500 55.925,192.500 55.833 C 192.500 55.742,192.350 55.667,192.167 55.667 C 191.983 55.667,191.833 55.592,191.833 55.500 C 191.833 55.408,191.688 55.333,191.510 55.333 C 191.332 55.333,191.140 55.258,191.083 55.167 C 191.027 55.075,190.835 55.000,190.657 55.000 C 190.479 55.000,190.333 54.933,190.333 54.852 C 190.333 54.770,190.090 54.662,189.792 54.611 C 189.494 54.560,188.875 54.444,188.417 54.353 C 187.901 54.250,181.565 54.183,171.792 54.177 L 156.000 54.167 156.000 84.750 M211.667 84.750 L 211.667 115.333 232.085 115.333 L 252.503 115.333 252.460 107.875 L 252.417 100.417 239.625 100.374 L 226.833 100.331 226.833 77.249 L 226.833 54.167 219.250 54.167 L 211.667 54.167 211.667 84.750 M278.417 55.500 C 278.360 55.592,278.168 55.667,277.990 55.667 C 277.812 55.667,277.667 55.742,277.667 55.833 C 277.667 55.925,277.517 56.000,277.333 56.000 C 277.150 56.000,277.000 56.075,277.000 56.167 C 277.000 56.258,276.850 56.333,276.667 56.333 C 276.483 56.333,276.333 56.408,276.333 56.500 C 276.333 56.592,276.235 56.667,276.115 56.667 C 275.995 56.667,275.751 56.798,275.573 56.958 C 275.395 57.119,274.781 57.470,274.208 57.739 C 273.635 58.008,273.167 58.289,273.167 58.364 C 273.167 58.439,273.065 58.500,272.941 58.500 C 272.817 58.500,272.481 58.725,272.193 59.000 C 271.905 59.275,271.630 59.500,271.580 59.500 C 271.531 59.500,271.162 59.819,270.760 60.208 C 270.358 60.598,269.750 61.142,269.408 61.417 C 268.536 62.119,267.500 63.177,267.500 63.365 C 267.500 63.452,267.125 63.865,266.667 64.282 C 266.208 64.699,265.833 65.110,265.833 65.194 C 265.833 65.279,265.646 65.536,265.417 65.765 C 265.188 65.994,265.000 66.312,265.000 66.471 C 265.000 66.630,264.850 66.868,264.667 67.000 C 264.483 67.132,264.333 67.336,264.333 67.453 C 264.333 67.571,264.258 67.667,264.167 67.667 C 264.075 67.667,264.000 67.800,264.000 67.963 C 264.000 68.126,263.850 68.368,263.667 68.500 C 263.483 68.632,263.333 68.874,263.333 69.037 C 263.333 69.200,263.258 69.333,263.167 69.333 C 263.075 69.333,263.000 69.483,263.000 69.667 C 263.000 69.850,262.925 70.000,262.833 70.000 C 262.742 70.000,262.667 70.150,262.667 70.333 C 262.667 70.517,262.604 70.667,262.527 70.667 C 262.450 70.667,262.283 70.985,262.157 71.375 C 262.031 71.765,261.832 72.271,261.715 72.500 C 261.598 72.729,261.502 73.123,261.501 73.375 C 261.500 73.627,261.425 73.833,261.333 73.833 C 261.242 73.833,261.167 74.021,261.167 74.250 C 261.167 74.479,261.092 74.667,261.000 74.667 C 260.908 74.667,260.833 74.892,260.833 75.167 C 260.833 75.442,260.758 75.667,260.667 75.667 C 260.575 75.667,260.500 75.967,260.500 76.333 C 260.500 76.700,260.425 77.000,260.333 77.000 C 260.242 77.000,260.167 77.258,260.167 77.573 C 260.167 77.889,260.092 78.193,260.000 78.250 C 259.908 78.307,259.833 78.944,259.833 79.667 C 259.833 80.389,259.758 81.027,259.667 81.083 C 259.564 81.147,259.500 82.582,259.500 84.833 C 259.500 87.085,259.564 88.520,259.667 88.583 C 259.758 88.640,259.833 89.169,259.833 89.760 C 259.833 90.364,259.906 90.833,260.000 90.833 C 260.092 90.833,260.167 91.166,260.167 91.573 C 260.167 91.981,260.242 92.360,260.333 92.417 C 260.425 92.473,260.500 92.778,260.500 93.093 C 260.500 93.409,260.575 93.667,260.667 93.667 C 260.758 93.667,260.833 93.892,260.833 94.167 C 260.833 94.442,260.908 94.667,261.000 94.667 C 261.092 94.667,261.167 94.892,261.167 95.167 C 261.167 95.442,261.242 95.667,261.333 95.667 C 261.425 95.667,261.500 95.877,261.500 96.135 C 261.500 96.392,261.610 96.749,261.745 96.926 C 261.879 97.104,261.992 97.414,261.995 97.615 C 261.998 97.816,262.075 98.027,262.167 98.083 C 262.258 98.140,262.333 98.332,262.333 98.510 C 262.333 98.688,262.394 98.833,262.469 98.833 C 262.543 98.833,262.707 99.096,262.833 99.417 C 262.959 99.737,263.123 100.000,263.198 100.000 C 263.272 100.000,263.333 100.133,263.333 100.297 C 263.333 100.460,263.483 100.701,263.667 100.833 C 263.850 100.965,264.000 101.207,264.000 101.370 C 264.000 101.533,264.075 101.667,264.167 101.667 C 264.258 101.667,264.333 101.800,264.333 101.963 C 264.333 102.126,264.483 102.368,264.667 102.500 C 264.850 102.632,265.000 102.833,265.000 102.946 C 265.000 103.059,265.188 103.339,265.417 103.568 C 265.646 103.797,265.833 104.057,265.833 104.145 C 265.833 104.232,266.283 104.761,266.833 105.320 C 267.383 105.879,267.833 106.371,267.833 106.413 C 267.833 106.562,269.231 108.000,269.376 108.000 C 269.456 108.000,269.873 108.360,270.302 108.800 C 270.732 109.240,271.327 109.744,271.625 109.920 C 271.923 110.095,272.167 110.297,272.167 110.369 C 272.167 110.441,272.279 110.500,272.417 110.500 C 272.554 110.500,272.667 110.575,272.667 110.667 C 272.667 110.758,272.745 110.833,272.840 110.833 C 272.936 110.833,273.175 110.983,273.372 111.167 C 273.569 111.350,273.828 111.500,273.948 111.500 C 274.068 111.500,274.167 111.575,274.167 111.667 C 274.167 111.758,274.317 111.833,274.500 111.833 C 274.683 111.833,274.833 111.900,274.833 111.981 C 274.833 112.193,276.726 113.132,277.416 113.261 C 277.737 113.321,278.000 113.437,278.000 113.519 C 278.000 113.600,278.112 113.667,278.250 113.667 C 278.387 113.667,278.500 113.742,278.500 113.833 C 278.500 113.925,278.688 114.000,278.917 114.000 C 279.146 114.000,279.333 114.075,279.333 114.167 C 279.333 114.258,279.521 114.333,279.750 114.333 C 279.979 114.333,280.167 114.408,280.167 114.500 C 280.167 114.592,280.392 114.667,280.667 114.667 C 280.942 114.667,281.167 114.742,281.167 114.833 C 281.167 114.925,281.429 115.000,281.750 115.000 C 282.071 115.000,282.333 115.075,282.333 115.167 C 282.333 115.258,282.633 115.333,283.000 115.333 C 283.367 115.333,283.667 115.408,283.667 115.500 C 283.667 115.592,284.000 115.667,284.407 115.667 C 284.814 115.667,285.193 115.742,285.250 115.833 C 285.307 115.925,285.757 116.000,286.250 116.000 C 286.743 116.000,287.193 116.075,287.250 116.167 C 287.314 116.270,288.807 116.333,291.177 116.333 C 293.614 116.333,295.000 116.273,295.000 116.167 C 295.000 116.073,295.469 116.000,296.073 116.000 C 296.664 116.000,297.193 115.925,297.250 115.833 C 297.307 115.742,297.686 115.667,298.093 115.667 C 298.500 115.667,298.833 115.592,298.833 115.500 C 298.833 115.408,299.133 115.333,299.500 115.333 C 299.867 115.333,300.167 115.258,300.167 115.167 C 300.167 115.075,300.429 115.000,300.750 115.000 C 301.071 115.000,301.333 114.925,301.333 114.833 C 301.333 114.742,301.558 114.667,301.833 114.667 C 302.108 114.667,302.333 114.592,302.333 114.500 C 302.333 114.408,302.479 114.333,302.657 114.333 C 302.835 114.333,303.027 114.258,303.083 114.167 C 303.140 114.075,303.369 114.000,303.593 114.000 C 303.817 114.000,304.000 113.925,304.000 113.833 C 304.000 113.742,304.150 113.667,304.333 113.667 C 304.517 113.667,304.667 113.595,304.667 113.508 C 304.667 113.420,304.929 113.299,305.250 113.239 C 305.571 113.179,305.833 113.063,305.833 112.981 C 305.833 112.900,305.983 112.833,306.167 112.833 C 306.350 112.833,306.500 112.758,306.500 112.667 C 306.500 112.575,306.650 112.500,306.833 112.500 C 307.017 112.500,307.167 112.425,307.167 112.333 C 307.167 112.242,307.265 112.167,307.385 112.167 C 307.505 112.167,307.765 112.017,307.962 111.833 C 308.158 111.650,308.398 111.500,308.493 111.500 C 308.589 111.500,308.667 111.425,308.667 111.333 C 308.667 111.242,308.800 111.167,308.963 111.167 C 309.126 111.167,309.368 111.017,309.500 110.833 C 309.632 110.650,309.807 110.500,309.889 110.500 C 310.414 110.500,316.667 104.647,316.667 104.157 C 316.667 104.062,316.835 103.810,317.042 103.597 C 317.688 102.928,317.934 102.584,318.431 101.653 C 318.697 101.156,318.958 100.712,319.012 100.667 C 319.066 100.621,319.216 100.340,319.346 100.042 C 319.475 99.744,319.638 99.500,319.707 99.500 C 319.777 99.500,319.833 99.350,319.833 99.167 C 319.833 98.983,319.908 98.833,320.000 98.833 C 320.092 98.833,320.167 98.683,320.167 98.500 C 320.167 98.317,320.242 98.167,320.333 98.167 C 320.425 98.167,320.500 98.017,320.500 97.833 C 320.500 97.650,320.575 97.500,320.667 97.500 C 320.758 97.500,320.833 97.364,320.833 97.198 C 320.833 97.032,320.990 96.572,321.181 96.177 C 321.372 95.781,321.570 95.054,321.621 94.562 C 321.672 94.070,321.778 93.667,321.857 93.667 C 321.935 93.667,322.000 93.479,322.000 93.250 C 322.000 93.021,322.075 92.833,322.167 92.833 C 322.258 92.833,322.333 92.533,322.333 92.167 C 322.333 91.800,322.408 91.500,322.500 91.500 C 322.592 91.500,322.667 91.092,322.667 90.593 C 322.667 90.094,322.742 89.640,322.833 89.583 C 322.929 89.524,323.000 88.637,323.000 87.490 C 323.000 86.274,323.065 85.500,323.167 85.500 C 323.258 85.500,323.333 85.162,323.333 84.750 C 323.333 84.337,323.258 84.000,323.167 84.000 C 323.065 84.000,323.000 83.250,323.000 82.083 C 323.000 80.917,322.935 80.167,322.833 80.167 C 322.742 80.167,322.667 79.796,322.667 79.343 C 322.667 78.890,322.592 78.473,322.500 78.417 C 322.408 78.360,322.333 78.018,322.333 77.657 C 322.333 76.699,321.986 76.796,321.403 77.917 C 320.810 79.057,319.791 80.909,319.660 81.083 C 319.542 81.242,319.263 81.727,318.486 83.125 C 317.685 84.567,316.241 86.921,316.125 86.972 C 316.056 87.003,316.000 87.095,316.000 87.177 C 316.000 87.333,313.084 91.860,312.620 92.426 C 312.473 92.604,311.853 93.388,311.241 94.167 C 309.292 96.650,306.972 98.864,304.655 100.452 C 303.432 101.291,301.235 102.345,299.500 102.927 C 298.996 103.096,298.512 103.294,298.425 103.367 C 298.338 103.440,298.099 103.500,297.893 103.500 C 297.688 103.500,297.479 103.566,297.429 103.647 C 297.378 103.729,297.130 103.838,296.877 103.890 C 296.624 103.942,296.042 104.067,295.583 104.167 C 292.719 104.791,288.900 104.945,286.583 104.529 C 285.942 104.414,285.172 104.277,284.873 104.225 C 284.575 104.173,284.289 104.063,284.239 103.982 C 284.188 103.900,283.968 103.833,283.750 103.833 C 283.532 103.833,283.307 103.758,283.250 103.667 C 283.193 103.575,283.000 103.500,282.821 103.500 C 282.642 103.500,282.365 103.432,282.206 103.349 C 282.047 103.266,281.335 102.931,280.625 102.603 C 275.496 100.241,271.984 96.285,270.147 90.802 C 269.224 88.046,268.931 85.898,268.946 82.000 C 268.952 80.304,269.006 78.579,269.065 78.167 C 269.421 75.681,270.410 71.812,271.183 69.875 C 271.266 69.669,271.398 69.331,271.478 69.125 C 272.361 66.832,273.505 64.505,274.900 62.167 C 275.147 61.754,275.391 61.285,275.443 61.125 C 275.496 60.965,275.605 60.833,275.686 60.833 C 275.767 60.833,275.833 60.749,275.833 60.645 C 275.833 60.424,278.190 56.807,278.670 56.292 C 278.851 56.097,279.000 55.801,279.000 55.635 C 279.000 55.315,278.590 55.220,278.417 55.500 M183.333 68.167 C 183.333 68.258,183.483 68.333,183.667 68.333 C 183.850 68.333,184.000 68.408,184.000 68.500 C 184.000 68.592,184.118 68.667,184.262 68.667 C 185.015 68.667,185.833 70.507,185.833 72.199 C 185.833 72.915,185.777 73.501,185.708 73.502 C 185.640 73.503,185.434 73.822,185.251 74.210 C 184.852 75.059,184.611 75.333,184.262 75.333 C 184.118 75.333,184.000 75.408,184.000 75.500 C 184.000 75.592,183.850 75.667,183.667 75.667 C 183.483 75.667,183.333 75.742,183.333 75.833 C 183.333 75.941,181.278 76.000,177.500 76.000 L 171.667 76.000 171.667 72.000 L 171.667 68.000 177.500 68.000 C 181.278 68.000,183.333 68.059,183.333 68.167 M287.667 69.769 C 286.469 69.892,284.736 70.205,284.333 70.372 C 284.104 70.467,283.767 70.602,283.583 70.671 C 282.521 71.076,280.740 72.021,279.833 72.661 C 279.148 73.145,277.308 74.999,276.687 75.833 C 276.448 76.154,276.214 76.454,276.168 76.500 C 275.973 76.693,275.254 78.072,274.770 79.182 C 273.798 81.413,273.512 85.914,274.182 88.437 C 274.374 89.159,274.570 89.956,274.617 90.208 C 274.665 90.460,274.771 90.667,274.852 90.667 C 274.934 90.667,275.000 90.772,275.000 90.901 C 275.000 91.179,275.695 92.559,275.875 92.639 C 275.944 92.669,276.000 92.794,276.000 92.917 C 276.000 93.039,276.056 93.164,276.125 93.194 C 276.194 93.225,276.468 93.571,276.734 93.963 C 277.363 94.888,279.751 97.147,280.594 97.613 C 284.512 99.778,287.160 100.365,290.750 99.864 C 292.867 99.568,293.330 99.473,293.428 99.315 C 293.478 99.233,293.666 99.167,293.845 99.167 C 294.025 99.167,294.301 99.098,294.461 99.014 C 294.620 98.930,295.012 98.742,295.333 98.595 C 298.924 96.957,302.002 93.546,303.166 89.917 C 303.283 89.550,303.439 89.100,303.512 88.917 C 304.129 87.361,304.126 82.571,303.507 80.917 C 303.319 80.413,302.811 78.986,302.603 78.375 C 302.501 78.077,302.362 77.833,302.293 77.833 C 302.223 77.833,302.167 77.690,302.167 77.514 C 302.167 77.338,302.106 77.169,302.032 77.139 C 301.958 77.108,301.642 76.710,301.331 76.254 C 299.604 73.723,297.142 71.784,294.208 70.646 C 294.002 70.565,293.665 70.432,293.458 70.348 C 292.513 69.965,289.088 69.623,287.667 69.769 M186.327 90.792 C 186.548 90.998,186.794 91.167,186.872 91.167 C 187.115 91.167,187.833 91.970,187.833 92.242 C 187.833 92.384,187.890 92.500,187.958 92.501 C 188.608 92.504,188.982 96.739,188.428 97.812 C 188.284 98.090,188.167 98.397,188.167 98.496 C 188.167 98.840,186.708 100.131,186.191 100.245 C 185.905 100.308,185.628 100.428,185.575 100.513 C 185.520 100.603,182.614 100.667,178.573 100.667 L 171.667 100.667 171.667 95.489 L 171.667 90.311 178.796 90.364 C 185.924 90.417,185.925 90.417,186.327 90.792 " stroke="none" fill="#fbfcfc" fill-rule="evenodd"></path><path id="path3" d="M351.016 26.424 C 350.245 26.733,349.345 27.113,349.016 27.267 C 348.686 27.421,347.873 27.799,347.208 28.107 C 346.544 28.415,345.456 28.920,344.792 29.230 C 343.319 29.917,342.260 30.393,341.542 30.690 C 341.244 30.814,341.000 30.971,341.000 31.041 C 341.000 31.110,340.856 31.167,340.681 31.167 C 340.505 31.167,340.336 31.224,340.306 31.294 C 340.275 31.364,338.975 32.065,337.417 32.851 C 335.858 33.638,334.283 34.453,333.917 34.664 C 333.550 34.875,332.950 35.216,332.583 35.423 C 332.217 35.630,331.279 36.167,330.500 36.617 C 329.721 37.068,328.840 37.544,328.542 37.675 C 328.244 37.807,328.000 37.971,328.000 38.041 C 328.000 38.110,327.920 38.167,327.822 38.167 C 327.724 38.167,327.316 38.392,326.917 38.667 C 326.517 38.942,326.146 39.167,326.093 39.167 C 326.040 39.167,325.641 39.414,325.207 39.717 C 324.772 40.019,323.817 40.674,323.083 41.173 C 322.350 41.672,321.712 42.118,321.667 42.166 C 321.621 42.213,321.283 42.469,320.917 42.734 C 320.550 43.000,319.937 43.516,319.554 43.881 C 318.619 44.774,318.332 44.658,318.543 43.473 C 318.631 42.984,318.769 42.453,318.851 42.294 C 318.933 42.135,319.000 41.890,319.000 41.750 C 319.000 41.610,319.066 41.365,319.147 41.206 C 319.310 40.886,319.525 40.377,319.861 39.512 C 319.983 39.198,320.636 37.848,321.311 36.512 C 323.080 33.011,323.080 33.011,323.735 31.926 C 324.064 31.382,324.333 30.889,324.333 30.830 C 324.333 30.675,323.345 30.846,323.238 31.019 C 323.188 31.100,323.000 31.167,322.821 31.167 C 322.642 31.167,322.346 31.242,322.164 31.333 C 321.982 31.425,321.684 31.575,321.502 31.667 C 321.320 31.758,321.094 31.833,321.000 31.833 C 320.907 31.833,320.512 31.973,320.123 32.144 C 319.735 32.315,318.892 32.669,318.250 32.931 C 317.608 33.192,316.258 33.827,315.250 34.341 C 313.385 35.294,313.041 35.482,310.445 36.983 C 309.636 37.451,308.911 37.833,308.834 37.833 C 308.757 37.833,308.669 37.900,308.639 37.982 C 308.608 38.064,308.345 38.271,308.053 38.441 C 307.085 39.005,304.584 40.723,304.528 40.863 C 304.497 40.938,304.380 41.000,304.268 41.000 C 304.155 41.000,303.917 41.131,303.740 41.292 C 303.562 41.452,302.816 42.028,302.083 42.571 C 301.350 43.114,300.712 43.602,300.667 43.655 C 300.621 43.708,300.134 44.088,299.585 44.500 C 299.036 44.913,298.429 45.400,298.237 45.583 C 298.045 45.767,297.521 46.217,297.073 46.583 C 291.655 51.016,285.160 58.011,283.489 61.212 C 282.408 63.282,282.706 63.457,286.250 62.835 C 287.902 62.545,292.227 62.435,293.385 62.654 C 295.838 63.117,296.316 63.230,297.500 63.629 C 301.341 64.923,305.200 67.870,307.318 71.129 C 308.222 72.521,308.663 72.924,307.974 71.729 C 307.141 70.284,306.186 69.194,303.587 66.719 C 300.009 63.314,291.887 61.453,285.891 62.665 C 282.050 63.442,282.240 62.688,286.920 58.583 C 287.651 57.942,288.287 57.375,288.333 57.323 C 288.379 57.272,289.167 56.635,290.083 55.908 C 291.000 55.181,291.787 54.546,291.833 54.496 C 291.879 54.447,292.479 53.992,293.167 53.484 C 293.854 52.975,295.054 52.081,295.833 51.497 C 297.408 50.316,304.744 45.357,305.145 45.203 C 305.285 45.149,305.854 44.831,306.408 44.495 C 308.160 43.436,311.572 41.799,311.635 41.988 C 311.668 42.087,311.285 43.461,310.784 45.042 C 308.988 50.705,308.978 52.822,310.745 53.426 C 311.835 53.799,314.341 53.053,316.667 51.663 C 317.171 51.362,317.958 50.914,318.417 50.667 C 319.762 49.944,321.907 48.618,322.039 48.427 C 322.113 48.320,322.163 48.360,322.164 48.528 C 322.166 48.681,322.105 48.831,322.029 48.861 C 321.372 49.126,316.500 57.754,316.500 58.653 C 316.500 58.755,316.434 58.968,316.353 59.127 C 316.013 59.796,315.107 62.245,314.829 63.250 C 314.753 63.525,314.419 64.688,314.087 65.833 C 313.755 66.979,313.408 68.254,313.316 68.667 C 312.974 70.189,312.849 70.762,312.751 71.250 C 312.696 71.525,312.584 72.012,312.502 72.333 C 312.420 72.654,312.269 73.404,312.166 74.000 C 312.062 74.596,311.912 75.383,311.831 75.750 C 311.750 76.117,311.598 76.942,311.493 77.583 C 311.189 79.440,311.157 79.558,311.007 79.399 C 310.929 79.317,310.670 78.500,310.431 77.583 C 310.193 76.667,309.923 75.748,309.832 75.542 C 309.741 75.335,309.599 74.998,309.516 74.792 C 309.065 73.664,308.567 72.672,308.452 72.670 C 308.380 72.668,308.389 72.798,308.472 72.958 C 308.622 73.248,308.958 74.008,309.396 75.042 C 309.615 75.558,309.990 76.806,310.361 78.250 C 310.951 80.544,311.920 80.216,313.474 77.197 C 313.865 76.439,314.405 75.444,314.675 74.985 C 314.946 74.527,315.167 74.080,315.167 73.993 C 315.167 73.905,315.223 73.833,315.293 73.833 C 315.362 73.833,315.520 73.605,315.643 73.326 C 315.767 73.047,316.273 72.144,316.767 71.319 C 317.262 70.495,317.667 69.781,317.667 69.732 C 317.667 69.683,317.892 69.316,318.167 68.917 C 318.442 68.517,318.667 68.110,318.667 68.012 C 318.667 67.914,318.742 67.833,318.833 67.833 C 318.925 67.833,319.000 67.766,319.000 67.683 C 319.000 67.601,319.300 67.057,319.668 66.475 C 320.035 65.893,320.386 65.304,320.449 65.167 C 320.511 65.029,321.130 64.054,321.823 63.000 C 322.516 61.946,323.455 60.465,323.908 59.708 C 324.362 58.952,324.793 58.333,324.866 58.333 C 324.940 58.333,325.000 58.252,325.000 58.153 C 325.000 57.943,328.168 53.277,328.367 53.194 C 328.440 53.164,328.500 53.039,328.500 52.917 C 328.500 52.794,328.559 52.669,328.631 52.639 C 328.702 52.608,329.279 51.833,329.912 50.917 C 330.544 50.000,331.108 49.212,331.164 49.167 C 331.220 49.121,331.446 48.821,331.667 48.500 C 331.887 48.179,332.111 47.879,332.164 47.833 C 332.218 47.788,332.608 47.262,333.031 46.667 C 333.455 46.071,333.942 45.433,334.113 45.250 C 334.285 45.067,334.610 44.654,334.835 44.333 C 335.304 43.666,335.299 43.673,336.671 42.000 C 337.923 40.473,338.782 39.452,339.333 38.838 C 339.563 38.582,340.275 37.785,340.917 37.065 C 343.025 34.702,346.555 31.153,348.167 29.775 C 349.037 29.031,349.787 28.375,349.833 28.317 C 349.879 28.260,350.619 27.678,351.477 27.023 C 353.206 25.705,353.111 25.582,351.016 26.424 M276.897 59.042 C 276.323 60.015,276.286 60.098,276.578 59.750 C 276.916 59.347,277.208 58.833,277.099 58.833 C 277.055 58.833,276.964 58.927,276.897 59.042 M273.762 64.442 C 273.523 64.868,273.362 65.251,273.403 65.292 C 273.444 65.333,273.671 64.984,273.908 64.517 C 274.447 63.453,274.344 63.401,273.762 64.442 M288.458 69.451 C 288.665 69.491,289.002 69.491,289.208 69.451 C 289.415 69.411,289.246 69.379,288.833 69.379 C 288.421 69.379,288.252 69.411,288.458 69.451 M286.083 69.667 C 285.637 69.780,285.628 69.794,286.000 69.794 C 286.229 69.794,286.642 69.737,286.917 69.667 C 287.363 69.553,287.372 69.539,287.000 69.539 C 286.771 69.539,286.358 69.597,286.083 69.667 M291.083 69.676 C 291.928 69.851,292.610 69.843,291.917 69.667 C 291.642 69.597,291.192 69.539,290.917 69.539 C 290.496 69.538,290.523 69.560,291.083 69.676 M292.833 69.992 C 292.971 70.085,293.227 70.163,293.403 70.164 C 293.829 70.168,293.696 70.072,293.083 69.935 C 292.718 69.853,292.651 69.869,292.833 69.992 M283.417 70.423 C 283.000 70.623,282.986 70.646,283.333 70.562 C 283.806 70.446,284.336 70.176,284.083 70.179 C 283.992 70.181,283.692 70.290,283.417 70.423 M296.500 71.508 C 297.078 71.901,297.407 72.015,297.000 71.682 C 296.771 71.494,296.508 71.340,296.417 71.340 C 296.325 71.339,296.362 71.415,296.500 71.508 M278.410 73.542 L 277.583 74.417 278.458 73.590 C 278.940 73.135,279.333 72.741,279.333 72.715 C 279.333 72.590,279.179 72.729,278.410 73.542 M270.250 73.167 C 270.187 73.364,270.174 73.563,270.220 73.608 C 270.265 73.654,270.354 73.530,270.417 73.333 C 270.479 73.136,270.493 72.937,270.447 72.892 C 270.401 72.846,270.313 72.970,270.250 73.167 M299.835 74.069 C 300.248 74.535,300.835 75.217,301.141 75.583 C 301.622 76.162,301.645 76.174,301.314 75.677 C 301.104 75.362,300.516 74.680,300.008 74.163 C 299.132 73.271,299.123 73.266,299.835 74.069 M269.917 74.500 C 269.853 74.788,269.836 75.059,269.879 75.101 C 269.921 75.143,270.004 74.939,270.063 74.646 C 270.201 73.951,270.067 73.816,269.917 74.500 M277.066 74.875 C 276.336 75.717,276.119 76.000,276.204 76.000 C 276.253 76.000,276.570 75.662,276.908 75.250 C 277.534 74.486,277.658 74.193,277.066 74.875 M269.539 76.500 C 269.539 76.821,269.573 76.952,269.615 76.792 C 269.657 76.631,269.657 76.369,269.615 76.208 C 269.573 76.048,269.539 76.179,269.539 76.500 M302.290 77.444 C 302.635 78.101,302.940 78.614,302.970 78.585 C 303.043 78.513,302.251 76.989,301.928 76.583 C 301.783 76.400,301.945 76.787,302.290 77.444 M320.767 78.499 C 320.517 78.958,320.348 79.333,320.392 79.333 C 320.504 79.333,321.351 77.796,321.279 77.724 C 321.247 77.691,321.016 78.040,320.767 78.499 M269.212 78.500 C 269.212 78.912,269.245 79.081,269.284 78.875 C 269.324 78.669,269.324 78.331,269.284 78.125 C 269.245 77.919,269.212 78.087,269.212 78.500 M269.065 82.167 C 269.065 83.404,269.092 83.910,269.124 83.292 C 269.156 82.673,269.156 81.660,269.124 81.042 C 269.092 80.423,269.065 80.929,269.065 82.167 M303.935 81.750 C 304.072 82.363,304.168 82.496,304.164 82.069 C 304.163 81.894,304.085 81.637,303.992 81.500 C 303.869 81.317,303.853 81.385,303.935 81.750 M273.440 83.292 C 273.314 84.057,273.335 85.908,273.478 86.573 C 273.536 86.842,273.583 86.073,273.584 84.864 C 273.584 82.415,273.584 82.419,273.440 83.292 M304.167 84.833 C 304.167 85.689,304.209 86.347,304.260 86.295 C 304.380 86.175,304.378 83.489,304.257 83.368 C 304.207 83.319,304.167 83.978,304.167 84.833 M269.214 85.583 C 269.216 86.042,269.248 86.209,269.286 85.956 C 269.325 85.703,269.324 85.328,269.284 85.123 C 269.244 84.918,269.213 85.125,269.214 85.583 M316.772 85.542 L 316.472 86.083 316.816 85.667 C 317.120 85.297,317.256 85.000,317.119 85.000 C 317.093 85.000,316.937 85.244,316.772 85.542 M303.938 87.854 C 303.799 88.549,303.933 88.684,304.083 88.000 C 304.147 87.712,304.164 87.441,304.121 87.399 C 304.079 87.357,303.996 87.561,303.938 87.854 M273.695 87.833 C 273.703 88.266,273.966 88.978,273.972 88.583 C 273.974 88.400,273.912 88.100,273.833 87.917 C 273.746 87.712,273.692 87.680,273.695 87.833 M314.436 89.250 C 314.288 89.479,314.045 89.873,313.897 90.125 L 313.627 90.583 313.962 90.178 C 314.359 89.698,314.884 88.833,314.779 88.833 C 314.738 88.833,314.584 89.021,314.436 89.250 M303.083 90.625 C 302.920 91.060,302.734 91.492,302.669 91.583 C 302.502 91.820,302.330 92.333,302.417 92.333 C 302.501 92.333,303.230 90.766,303.405 90.208 C 303.622 89.514,303.381 89.826,303.083 90.625 M313.028 91.270 C 312.815 91.600,312.717 91.822,312.812 91.763 C 313.076 91.600,313.708 90.666,313.553 90.669 C 313.478 90.670,313.242 90.941,313.028 91.270 M271.502 93.750 C 271.502 93.842,271.651 94.142,271.833 94.417 C 272.265 95.068,272.265 94.837,271.834 94.129 C 271.651 93.829,271.501 93.658,271.502 93.750 M310.347 94.833 C 309.869 95.383,309.522 95.833,309.577 95.833 C 309.677 95.833,310.429 95.014,311.033 94.245 C 311.647 93.465,311.215 93.835,310.347 94.833 M277.134 94.958 C 277.500 95.394,278.010 95.938,278.266 96.167 C 278.523 96.396,278.257 96.040,277.676 95.375 C 276.501 94.032,276.091 93.717,277.134 94.958 M300.406 95.042 L 299.917 95.583 300.458 95.094 C 300.963 94.638,301.077 94.500,300.948 94.500 C 300.919 94.500,300.675 94.744,300.406 95.042 M272.423 95.458 C 272.982 96.327,273.167 96.574,273.167 96.450 C 273.167 96.290,272.314 95.000,272.209 95.000 C 272.164 95.000,272.261 95.206,272.423 95.458 M299.158 96.292 L 298.583 96.917 299.248 96.333 C 299.614 96.013,299.945 95.731,299.984 95.708 C 300.023 95.685,299.983 95.667,299.894 95.667 C 299.805 95.667,299.474 95.948,299.158 96.292 M308.409 97.042 L 307.750 97.750 308.458 97.091 C 309.117 96.478,309.243 96.333,309.117 96.333 C 309.090 96.333,308.771 96.652,308.409 97.042 M273.645 97.115 C 274.058 97.719,276.484 100.000,276.713 100.000 C 276.796 100.000,276.453 99.665,275.951 99.256 C 275.449 98.847,274.643 98.078,274.160 97.548 C 273.677 97.017,273.445 96.823,273.645 97.115 M297.968 97.214 C 297.722 97.417,297.347 97.715,297.135 97.876 C 296.862 98.084,296.925 98.071,297.352 97.832 C 297.682 97.647,298.088 97.346,298.252 97.164 C 298.643 96.732,298.528 96.752,297.968 97.214 M306.333 98.867 C 305.829 99.336,305.642 99.564,305.917 99.375 C 306.391 99.048,307.478 97.991,307.323 98.008 C 307.283 98.012,306.837 98.399,306.333 98.867 M295.833 98.583 C 295.421 98.804,295.143 98.988,295.215 98.992 C 295.392 99.003,296.667 98.348,296.667 98.247 C 296.667 98.136,296.674 98.133,295.833 98.583 M284.833 99.826 C 284.971 99.919,285.227 99.996,285.403 99.997 C 285.829 100.001,285.696 99.905,285.083 99.768 C 284.718 99.687,284.651 99.702,284.833 99.826 M292.250 99.833 L 291.917 99.977 292.250 99.986 C 292.433 99.991,292.696 99.922,292.833 99.833 C 293.165 99.619,292.748 99.619,292.250 99.833 M286.300 100.197 C 286.653 100.338,290.574 100.331,291.243 100.189 C 291.514 100.131,290.449 100.083,288.876 100.083 C 287.303 100.083,286.144 100.134,286.300 100.197 M299.250 102.756 C 298.833 102.957,298.819 102.980,299.167 102.895 C 299.639 102.779,300.170 102.509,299.917 102.513 C 299.825 102.514,299.525 102.623,299.250 102.756 M297.590 103.277 C 297.227 103.407,296.890 103.555,296.840 103.604 C 296.709 103.736,297.670 103.480,298.250 103.229 C 298.916 102.941,298.424 102.976,297.590 103.277 M285.181 104.061 C 285.219 104.095,285.550 104.168,285.917 104.224 C 286.381 104.295,286.482 104.280,286.250 104.174 C 285.930 104.029,285.037 103.935,285.181 104.061 M294.167 104.167 C 293.837 104.272,293.819 104.300,294.083 104.300 C 294.267 104.300,294.604 104.240,294.833 104.167 C 295.163 104.061,295.181 104.033,294.917 104.033 C 294.733 104.033,294.396 104.093,294.167 104.167 M287.583 104.500 C 287.858 104.570,288.308 104.627,288.583 104.628 C 289.004 104.628,288.977 104.606,288.417 104.490 C 287.572 104.316,286.890 104.324,287.583 104.500 M291.667 104.500 C 291.224 104.593,291.184 104.626,291.500 104.635 C 291.729 104.642,292.217 104.585,292.583 104.510 C 293.139 104.395,293.167 104.372,292.750 104.374 C 292.475 104.376,291.987 104.432,291.667 104.500 " stroke="none" fill="#a3d4f4" fill-rule="evenodd"></path><path id="path4" d="M287.583 69.649 C 287.215 69.706,287.847 69.755,289.000 69.758 C 290.524 69.763,290.837 69.734,290.167 69.649 C 289.080 69.511,288.484 69.511,287.583 69.649 M285.250 70.000 L 284.917 70.143 285.250 70.138 C 285.433 70.136,285.771 70.073,286.000 70.000 L 286.417 69.867 286.000 69.862 C 285.771 69.859,285.433 69.921,285.250 70.000 M292.000 70.000 C 292.570 70.183,293.008 70.183,292.583 70.000 C 292.400 69.921,292.100 69.859,291.917 69.862 C 291.649 69.866,291.665 69.893,292.000 70.000 M280.958 71.762 C 280.706 71.899,280.500 72.046,280.500 72.089 C 280.500 72.250,280.763 72.149,281.167 71.833 C 281.662 71.446,281.588 71.420,280.958 71.762 M296.833 71.889 C 296.833 71.979,298.131 72.833,298.269 72.833 C 298.329 72.833,298.199 72.695,297.981 72.525 C 297.528 72.174,296.833 71.788,296.833 71.889 M279.750 72.598 L 279.250 73.028 279.792 72.669 C 280.090 72.472,280.333 72.278,280.333 72.239 C 280.333 72.114,280.263 72.157,279.750 72.598 M277.809 74.292 C 276.941 75.225,276.167 76.227,276.167 76.416 C 276.167 76.490,276.380 76.258,276.640 75.900 C 276.900 75.543,277.499 74.856,277.972 74.375 C 278.445 73.894,278.767 73.500,278.689 73.500 C 278.610 73.500,278.214 73.856,277.809 74.292 M300.284 74.911 C 300.449 75.138,300.653 75.325,300.737 75.328 C 300.822 75.331,300.715 75.146,300.500 74.917 C 300.000 74.385,299.899 74.382,300.284 74.911 M269.595 75.095 C 269.534 75.339,269.516 75.571,269.555 75.611 C 269.594 75.650,269.677 75.482,269.738 75.238 C 269.799 74.994,269.817 74.762,269.778 74.723 C 269.739 74.683,269.657 74.851,269.595 75.095 M301.244 76.125 C 301.501 76.515,301.743 76.833,301.782 76.833 C 301.902 76.833,301.264 75.819,301.013 75.612 C 300.883 75.505,300.987 75.735,301.244 76.125 M269.262 76.762 C 269.201 77.006,269.183 77.238,269.222 77.277 C 269.261 77.317,269.343 77.149,269.405 76.905 C 269.466 76.661,269.484 76.429,269.445 76.389 C 269.406 76.350,269.323 76.518,269.262 76.762 M302.500 78.229 C 302.500 78.263,302.689 78.694,302.919 79.187 C 303.343 80.092,303.325 79.752,302.895 78.723 C 302.698 78.252,302.500 78.004,302.500 78.229 M268.937 78.923 C 268.880 79.072,268.845 79.732,268.859 80.389 L 268.885 81.583 268.999 80.167 C 269.119 78.682,269.109 78.477,268.937 78.923 M303.340 80.448 C 303.336 80.649,303.408 80.860,303.500 80.917 C 303.592 80.973,303.672 81.221,303.678 81.468 C 303.685 81.715,303.757 82.067,303.838 82.250 C 303.935 82.471,303.951 82.330,303.882 81.833 C 303.756 80.913,303.350 79.876,303.340 80.448 M273.937 81.513 C 273.746 82.357,273.676 83.398,273.697 85.062 L 273.728 87.417 273.843 84.667 C 273.906 83.154,274.045 81.588,274.152 81.186 C 274.258 80.785,274.314 80.425,274.276 80.387 C 274.238 80.349,274.085 80.855,273.937 81.513 M304.064 84.750 C 304.064 85.850,304.091 86.278,304.124 85.702 C 304.156 85.125,304.156 84.225,304.123 83.702 C 304.090 83.178,304.063 83.650,304.064 84.750 M268.850 83.931 C 268.859 84.473,268.927 85.104,269.001 85.333 C 269.078 85.574,269.096 85.186,269.044 84.417 C 268.936 82.824,268.827 82.551,268.850 83.931 M269.169 87.097 C 269.171 87.273,269.248 87.529,269.341 87.667 C 269.464 87.849,269.480 87.782,269.398 87.417 C 269.261 86.804,269.166 86.671,269.169 87.097 M303.773 87.535 C 303.717 87.745,303.678 88.104,303.687 88.333 C 303.697 88.579,303.763 88.446,303.848 88.011 C 304.001 87.230,303.947 86.886,303.773 87.535 M273.943 88.083 C 274.000 88.450,274.111 88.900,274.188 89.083 C 274.277 89.295,274.290 89.173,274.224 88.750 C 274.166 88.383,274.056 87.933,273.979 87.750 C 273.890 87.538,273.877 87.660,273.943 88.083 M269.523 88.667 C 269.523 88.804,269.588 89.067,269.667 89.250 C 269.757 89.460,269.810 89.491,269.810 89.333 C 269.810 89.196,269.745 88.933,269.667 88.750 C 269.576 88.540,269.523 88.509,269.523 88.667 M313.325 91.180 C 312.946 91.737,312.662 92.218,312.693 92.249 C 312.725 92.280,313.069 91.824,313.459 91.236 C 313.850 90.648,314.134 90.167,314.091 90.167 C 314.048 90.167,313.703 90.622,313.325 91.180 M276.355 93.708 C 276.809 94.360,279.175 96.833,279.344 96.833 C 279.410 96.833,278.928 96.313,278.273 95.678 C 277.617 95.042,276.894 94.219,276.666 93.849 C 276.437 93.479,276.189 93.174,276.114 93.171 C 276.039 93.169,276.147 93.410,276.355 93.708 M300.208 94.951 C 299.276 95.964,299.052 96.320,299.767 95.654 C 300.211 95.240,301.239 94.000,301.139 94.000 C 301.108 94.000,300.689 94.428,300.208 94.951 M308.497 97.125 L 306.917 98.750 308.542 97.170 C 310.051 95.702,310.242 95.500,310.122 95.500 C 310.097 95.500,309.366 96.231,308.497 97.125 M281.000 97.995 C 281.455 98.345,282.056 98.559,281.907 98.318 C 281.856 98.235,281.715 98.167,281.594 98.167 C 281.473 98.167,281.281 98.054,281.167 97.917 C 281.053 97.779,280.875 97.668,280.771 97.670 C 280.668 97.672,280.771 97.818,281.000 97.995 M296.333 98.083 C 296.012 98.302,295.661 98.485,295.552 98.490 C 295.442 98.496,295.307 98.574,295.251 98.664 C 295.131 98.859,295.461 98.733,296.458 98.203 C 296.848 97.996,297.167 97.791,297.167 97.747 C 297.167 97.588,296.906 97.693,296.333 98.083 M275.000 98.750 C 275.311 99.071,275.603 99.333,275.649 99.333 C 275.695 99.333,275.478 99.071,275.167 98.750 C 274.856 98.429,274.564 98.167,274.518 98.167 C 274.472 98.167,274.689 98.429,275.000 98.750 M283.167 99.067 C 283.396 99.188,283.808 99.333,284.083 99.389 C 284.561 99.487,284.565 99.483,284.167 99.312 C 283.938 99.213,283.620 99.065,283.461 98.983 C 283.301 98.901,283.076 98.836,282.961 98.840 C 282.845 98.844,282.938 98.946,283.167 99.067 M284.681 99.560 C 284.719 99.593,284.975 99.670,285.250 99.732 C 285.615 99.813,285.683 99.798,285.500 99.674 C 285.275 99.522,284.513 99.416,284.681 99.560 M292.167 99.674 C 291.984 99.798,292.052 99.813,292.417 99.732 C 293.029 99.595,293.163 99.499,292.736 99.503 C 292.560 99.504,292.304 99.581,292.167 99.674 M286.500 100.000 C 287.137 100.204,287.649 100.204,287.333 100.000 C 287.196 99.911,286.858 99.845,286.583 99.852 C 286.093 99.866,286.092 99.869,286.500 100.000 M289.667 100.000 C 289.062 100.194,289.992 100.201,290.917 100.010 L 291.583 99.872 290.833 99.869 C 290.421 99.868,289.896 99.927,289.667 100.000 M278.750 101.586 C 278.933 101.736,279.233 101.931,279.417 102.021 L 279.750 102.185 279.417 101.914 C 279.233 101.764,278.933 101.569,278.750 101.479 L 278.417 101.315 278.750 101.586 M285.500 104.331 C 285.637 104.421,285.931 104.496,286.153 104.497 C 286.688 104.501,286.552 104.406,285.833 104.274 C 285.423 104.199,285.324 104.216,285.500 104.331 M294.250 104.333 C 293.789 104.451,293.782 104.462,294.167 104.478 C 294.396 104.487,294.696 104.422,294.833 104.333 C 295.117 104.150,294.970 104.150,294.250 104.333 M288.868 104.790 C 289.482 104.822,290.532 104.822,291.201 104.791 C 291.870 104.759,291.367 104.733,290.083 104.732 C 288.800 104.732,288.253 104.758,288.868 104.790 " stroke="none" fill="#d4e4f4" fill-rule="evenodd"></path></g></svg>